%
M48
METRIC,TZ
M71
T01C0.50
T02C0.60
T03C0.70
T04C0.81
T05C1.00
T06C1.02
T07C1.12
%
T01
X31763Y55893
T02
X1283Y1283
X1283Y55893
X60338Y55893
X60338Y1283
T03
X50813Y4458
X50813Y6998
X50813Y9538
X51448Y12713
X49543Y18555
X51448Y22873
X39383Y18555
X35573Y8268
X35573Y4458
X45733Y4458
X45733Y8268
X25413Y18428
X20333Y18428
X16523Y18428
X16523Y15888
X11443Y17793
X8268Y15253
X4458Y15253
X11443Y22873
X8268Y25413
X4458Y25413
X20968Y9538
X20968Y4458
X19063Y46368
X14618Y46368
X14618Y51448
X19063Y51448
T04
X20333Y30493
X17793Y30493
X15253Y30493
X15253Y22873
X17793Y22873
X20333Y22873
X22873Y22873
X25413Y22873
X27953Y22873
X30493Y22873
X33033Y22873
X35573Y22873
X38113Y22873
X40653Y22873
X43193Y22873
X45733Y22873
X48273Y22873
X48273Y30493
X45733Y30493
X43193Y30493
X40653Y30493
X38113Y30493
X35573Y30493
X33033Y30493
X30493Y30493
X27953Y30493
X25413Y30493
X22873Y30493
T05
X42101Y15608
X42101Y11087
X48603Y11087
X48603Y15608
X56147Y9411
X56147Y22111
T06
X54242Y36208
X54242Y38748
X54242Y41288
X54242Y43828
X54242Y46368
T07
X56528Y25667
X54623Y18047
X55131Y12967
X55258Y5474
X38748Y12713
X34303Y12713
X28588Y13348
X25413Y8903
X11443Y30493
X11443Y35573
X15888Y35573
M30
