%
M48
METRIC,TZ
M71
T01C0.6000
T02C0.7000
T03C0.8128
T04C1.0000
T05C1.0160
T06C1.1176
%
T01
X0Y0
X61595Y0
T02
X57150Y15240
X53340Y15240
X50165Y17780
X50165Y22860
X53340Y25400
X57150Y25400
X45085Y18415
X45085Y15875
X41275Y18415
X36195Y18415
X40640Y9525
X40640Y4445
X26035Y4445
X26035Y8255
X22225Y18542
X15875Y8255
X15875Y4445
X10795Y4445
X10795Y6985
X10795Y9525
X10160Y12700
X12065Y18542
X10160Y22860
X42545Y46355
X46990Y46355
X46990Y51435
X42545Y51435
T03
X41275Y30480
X38735Y30480
X36195Y30480
X33655Y30480
X31115Y30480
X28575Y30480
X26035Y30480
X23495Y30480
X20955Y30480
X18415Y30480
X15875Y30480
X13335Y30480
X13335Y22860
X15875Y22860
X18415Y22860
X20955Y22860
X23495Y22860
X26035Y22860
X28575Y22860
X31115Y22860
X33655Y22860
X36195Y22860
X38735Y22860
X41275Y22860
X43815Y22860
X46355Y22860
X46355Y30480
X43815Y30480
T04
X19507Y15596
X19507Y11074
X13005Y11074
X13005Y15596
X5461Y9398
X5461Y22098
T05
X7366Y36195
X7366Y38735
X7366Y41275
X7366Y43815
X7366Y46355
T06
X5080Y25654
X6985Y18034
X6477Y12954
X6350Y5461
X22860Y12700
X27305Y12700
X33020Y13335
X36195Y8890
X50165Y30480
X50165Y35560
X45720Y35560
M30
