G75*
G71*
%OFA0B0*%
%FSLAX33Y33*%
%IPPOS*%
%LPD*%
%AMOC8*
5,1,8,0,0,1.08239X$1,22.5*
%
%ADD10C, 0.803*%
%ADD11C, 0.703*%
%ADD12C, 2.743*%
%ADD13R, 2.997X 2.703*%
%ADD14C, 2.388*%
%ADD15R, 1.981X 1.981*%
%ADD16C, 1.880*%
%ADD17C, 2.388*%
%ADD18R, 2.718X 2.718*%
%ADD19R, 1.219X 1.981*%
%ADD20R, 2.489X 1.981*%
%ADD21R, 1.703X 1.219*%
%ADD22OC8, 4.013*%
D10*
X001283Y001283D03*
X001283Y055893D03*
X060338Y055893D03*
X060338Y001283D03*
D11*
X029858Y055893D03*
D12*
X042558Y051448D03*
X047003Y051448D03*
X047003Y046368D03*
X042558Y046368D03*
X053353Y025413D03*
X050178Y022873D03*
X050178Y017793D03*
X053353Y015253D03*
X057163Y015253D03*
X057163Y025413D03*
X041288Y018428D03*
X036208Y018428D03*
X040653Y009538D03*
X040653Y004458D03*
X026048Y004458D03*
X026048Y008268D03*
X019520Y011087D03*
X015888Y008268D03*
X013017Y011087D03*
X010173Y012713D03*
X013017Y015608D03*
X012078Y018555D03*
X010173Y022873D03*
X005474Y022111D03*
X005474Y009411D03*
X015888Y004458D03*
X019520Y015608D03*
X022238Y018555D03*
D13*
X025428Y018682D03*
X031748Y018682D03*
D14*
X008471Y036208D02*
X006286Y036208D01*
X006286Y038748D02*
X008471Y038748D01*
X008471Y041288D02*
X006286Y041288D01*
X006286Y043828D02*
X008471Y043828D01*
X008471Y046368D02*
X006286Y046368D01*
D15*
X038264Y013348D03*
X041264Y013348D03*
D16*
X041288Y022034D02*
X041288Y023711D01*
X043828Y023711D02*
X043828Y022034D01*
X046368Y022034D02*
X046368Y023711D01*
X046368Y029654D02*
X046368Y031331D01*
X043828Y031331D02*
X043828Y029654D01*
X041288Y029654D02*
X041288Y031331D01*
X038748Y031331D02*
X038748Y029654D01*
X036208Y029654D02*
X036208Y031331D01*
X033668Y031331D02*
X033668Y029654D01*
X031128Y029654D02*
X031128Y031331D01*
X028588Y031331D02*
X028588Y029654D01*
X026048Y029654D02*
X026048Y031331D01*
X023508Y031331D02*
X023508Y029654D01*
X020968Y029654D02*
X020968Y031331D01*
X018428Y031331D02*
X018428Y029654D01*
X015888Y029654D02*
X015888Y031331D01*
X013348Y031331D02*
X013348Y029654D01*
X013348Y023711D02*
X013348Y022034D01*
X015888Y022034D02*
X015888Y023711D01*
X018428Y023711D02*
X018428Y022034D01*
X020968Y022034D02*
X020968Y023711D01*
X023508Y023711D02*
X023508Y022034D01*
X026048Y022034D02*
X026048Y023711D01*
X028588Y023711D02*
X028588Y022034D01*
X031128Y022034D02*
X031128Y023711D01*
X033668Y023711D02*
X033668Y022034D01*
X036208Y022034D02*
X036208Y023711D01*
X038748Y023711D02*
X038748Y022034D01*
D17*
X045098Y018428D03*
X045098Y015888D03*
X010808Y009538D03*
X010808Y006998D03*
X010808Y004458D03*
D18*
X020968Y039383D03*
X020968Y041923D03*
X020968Y044463D03*
X020968Y047003D03*
X020968Y049543D03*
X020968Y052083D03*
X038748Y052083D03*
X038748Y049543D03*
X038748Y047003D03*
X038748Y044463D03*
X038748Y041923D03*
X038748Y039383D03*
D19*
X031737Y005448D03*
X030493Y005448D03*
D20*
X031128Y008547D03*
D21*
X046158Y008903D03*
X046158Y010173D03*
X046158Y011443D03*
X046158Y007633D03*
X051658Y007633D03*
X051658Y008903D03*
X051658Y010173D03*
X051658Y011443D03*
D22*
X036208Y008903D03*
X033033Y013348D03*
X027318Y012713D03*
X022873Y012713D03*
X006998Y018047D03*
X006490Y012967D03*
X006363Y005474D03*
X005093Y025667D03*
X045733Y035573D03*
X050178Y035573D03*
X050178Y030493D03*
M02*
