%
M48
METRIC,TZ
M71
T01C0.60
T02C0.70
T03C0.81
T04C1.00
T05C1.02
T06C1.12
%
T01
X0Y0
X-61595Y0
T02
X-40640Y4445
X-26035Y4445
X-15875Y4445
X-10795Y4445
X-10795Y6985
X-15875Y8255
X-26035Y8255
X-40640Y9525
X-10795Y9525
X-10160Y12700
X-53340Y15240
X-57150Y15240
X-45085Y15875
X-50165Y17780
X-45085Y18415
X-41275Y18415
X-36195Y18415
X-22225Y18542
X-12065Y18542
X-10160Y22860
X-50165Y22860
X-53340Y25400
X-57150Y25400
X-46990Y46355
X-42545Y46355
X-42545Y51435
X-46990Y51435
T03
X-46355Y30480
X-43815Y30480
X-41275Y30480
X-38735Y30480
X-36195Y30480
X-33655Y30480
X-31115Y30480
X-28575Y30480
X-26035Y30480
X-23495Y30480
X-20955Y30480
X-18415Y30480
X-15875Y30480
X-13335Y30480
X-13335Y22860
X-15875Y22860
X-18415Y22860
X-20955Y22860
X-23495Y22860
X-26035Y22860
X-28575Y22860
X-31115Y22860
X-33655Y22860
X-36195Y22860
X-38735Y22860
X-41275Y22860
X-43815Y22860
X-46355Y22860
T04
X-5461Y22098
X-13005Y15596
X-19507Y15596
X-19507Y11074
X-13005Y11074
X-5461Y9398
T05
X-7366Y36195
X-7366Y38735
X-7366Y41275
X-7366Y43815
X-7366Y46355
T06
X-45720Y35560
X-50165Y35560
X-50165Y30480
X-5080Y25654
X-6985Y18034
X-6477Y12954
X-22860Y12700
X-27305Y12700
X-33020Y13335
X-36195Y8890
X-6350Y5461
M30
