G75*
G71*
%OFA0B0*%
%FSLAX33Y33*%
%IPPOS*%
%LPD*%
%AMOC8*
5,1,8,0,0,1.08239X$1,22.5*
%
%ADD10C, 0.803*%
%ADD11C, 2.743*%
%ADD12C, 2.388*%
%ADD13C, 1.880*%
%ADD14C, 2.388*%
%ADD15OC8, 4.013*%
D10*
X001283Y001283D03*
X062878Y001283D03*
D11*
X058433Y016523D03*
X054623Y016523D03*
X051448Y019063D03*
X051448Y024143D03*
X054623Y026683D03*
X058433Y026683D03*
X042558Y019698D03*
X037478Y019698D03*
X041923Y010808D03*
X041923Y005728D03*
X027318Y005728D03*
X027318Y009538D03*
X020790Y012357D03*
X017158Y009538D03*
X014287Y012357D03*
X011443Y013983D03*
X014287Y016878D03*
X013348Y019825D03*
X011443Y024143D03*
X006744Y023381D03*
X006744Y010681D03*
X017158Y005728D03*
X020790Y016878D03*
X023508Y019825D03*
X043828Y047638D03*
X048273Y047638D03*
X048273Y052718D03*
X043828Y052718D03*
D12*
X009741Y047638D02*
X007556Y047638D01*
X007556Y045098D02*
X009741Y045098D01*
X009741Y042558D02*
X007556Y042558D01*
X007556Y040018D02*
X009741Y040018D01*
X009741Y037478D02*
X007556Y037478D01*
D13*
X014618Y032601D02*
X014618Y030924D01*
X017158Y030924D02*
X017158Y032601D01*
X019698Y032601D02*
X019698Y030924D01*
X022238Y030924D02*
X022238Y032601D01*
X024778Y032601D02*
X024778Y030924D01*
X027318Y030924D02*
X027318Y032601D01*
X029858Y032601D02*
X029858Y030924D01*
X032398Y030924D02*
X032398Y032601D01*
X034938Y032601D02*
X034938Y030924D01*
X037478Y030924D02*
X037478Y032601D01*
X040018Y032601D02*
X040018Y030924D01*
X042558Y030924D02*
X042558Y032601D01*
X045098Y032601D02*
X045098Y030924D01*
X047638Y030924D02*
X047638Y032601D01*
X047638Y024981D02*
X047638Y023304D01*
X045098Y023304D02*
X045098Y024981D01*
X042558Y024981D02*
X042558Y023304D01*
X040018Y023304D02*
X040018Y024981D01*
X037478Y024981D02*
X037478Y023304D01*
X034938Y023304D02*
X034938Y024981D01*
X032398Y024981D02*
X032398Y023304D01*
X029858Y023304D02*
X029858Y024981D01*
X027318Y024981D02*
X027318Y023304D01*
X024778Y023304D02*
X024778Y024981D01*
X022238Y024981D02*
X022238Y023304D01*
X019698Y023304D02*
X019698Y024981D01*
X017158Y024981D02*
X017158Y023304D01*
X014618Y023304D02*
X014618Y024981D01*
D14*
X012078Y010808D03*
X012078Y008268D03*
X012078Y005728D03*
X046368Y017158D03*
X046368Y019698D03*
D15*
X037478Y010173D03*
X034303Y014618D03*
X028588Y013983D03*
X024143Y013983D03*
X007760Y014237D03*
X008268Y019317D03*
X006363Y026937D03*
X007633Y006744D03*
X047003Y036843D03*
X051448Y036843D03*
X051448Y031763D03*
M02*
