%
M48
M72
T01C0.0197
T02C0.0236
T03C0.0276
T04C0.0315
T05C0.0320
T06C0.0400
T07C0.0440
%
T01
X11755Y22005
T02
X505Y505
X505Y22005
X23755Y22005
X23755Y505
T03
X22505Y6005
X21005Y6005
X19755Y7005
X19755Y9005
X21005Y10005
X22505Y10005
X17755Y7255
X17755Y6255
X16255Y7255
X14255Y7255
X16005Y3755
X16005Y1755
X10255Y1755
X10255Y3255
X8755Y7305
X6255Y3255
X6255Y1755
X4005Y5005
X4755Y7305
X4005Y9005
X16755Y18255
X18505Y18255
X18505Y20255
X16755Y20255
T04
X4505Y3505
X4505Y2505
X4505Y1505
T05
X5255Y9005
X6255Y9005
X7255Y9005
X8255Y9005
X9255Y9005
X10255Y9005
X11255Y9005
X12255Y9005
X13255Y9005
X14255Y9005
X15255Y9005
X16255Y9005
X17255Y9005
X18255Y9005
X18255Y12005
X17255Y12005
X16255Y12005
X15255Y12005
X14255Y12005
X13255Y12005
X12255Y12005
X11255Y12005
X10255Y12005
X9255Y12005
X8255Y12005
X7255Y12005
X6255Y12005
X5255Y12005
T06
X2905Y14255
X2905Y15255
X2905Y16255
X2905Y17255
X2905Y18255
X5125Y6145
X5125Y4365
X7685Y4365
X7685Y6145
T07
X9005Y5005
X10755Y5005
X13005Y5255
X14255Y3505
X19755Y12005
X19755Y14005
X18005Y14005
X2755Y10505
X2505Y8755
X2755Y7005
X2005Y5505
X2255Y3755
X2005Y2005
M30
