G75*
G71*
%OFA0B0*%
%FSLAX33Y33*%
%IPPOS*%
%LPD*%
%AMOC8*
5,1,8,0,0,1.08239X$1,22.5*
%
%ADD10C, 0.000*%
%ADD11C, 0.152*%
%ADD12C, 0.127*%
%ADD13R, 1.880X 0.432*%
%ADD14C, 0.305*%
%ADD15C, 0.102*%
%ADD16C, 0.203*%
%ADD17C, 0.025*%
%ADD18C, 0.178*%
%ADD19R, 0.610X 0.864*%
%ADD20R, 0.864X 0.610*%
%ADD21C, 0.610*%
D10*
X000983Y001283D02*
X000985Y001317D01*
X000991Y001351D01*
X001000Y001384D01*
X001014Y001415D01*
X001031Y001445D01*
X001051Y001473D01*
X001074Y001498D01*
X001100Y001521D01*
X001128Y001540D01*
X001158Y001556D01*
X001190Y001568D01*
X001223Y001577D01*
X001257Y001582D01*
X001292Y001583D01*
X001326Y001580D01*
X001359Y001573D01*
X001392Y001563D01*
X001423Y001548D01*
X001452Y001531D01*
X001479Y001510D01*
X001504Y001486D01*
X001526Y001459D01*
X001544Y001431D01*
X001559Y001400D01*
X001571Y001368D01*
X001579Y001334D01*
X001583Y001300D01*
X001583Y001266D01*
X001579Y001232D01*
X001571Y001198D01*
X001559Y001166D01*
X001544Y001135D01*
X001526Y001107D01*
X001504Y001080D01*
X001479Y001056D01*
X001452Y001035D01*
X001423Y001018D01*
X001392Y001003D01*
X001359Y000993D01*
X001326Y000986D01*
X001292Y000983D01*
X001257Y000984D01*
X001223Y000989D01*
X001190Y000998D01*
X001158Y001010D01*
X001128Y001026D01*
X001100Y001045D01*
X001074Y001068D01*
X001051Y001093D01*
X001031Y001121D01*
X001014Y001151D01*
X001000Y001182D01*
X000991Y001215D01*
X000985Y001249D01*
X000983Y001283D01*
X000983Y055893D02*
X000985Y055927D01*
X000991Y055961D01*
X001000Y055994D01*
X001014Y056025D01*
X001031Y056055D01*
X001051Y056083D01*
X001074Y056108D01*
X001100Y056131D01*
X001128Y056150D01*
X001158Y056166D01*
X001190Y056178D01*
X001223Y056187D01*
X001257Y056192D01*
X001292Y056193D01*
X001326Y056190D01*
X001359Y056183D01*
X001392Y056173D01*
X001423Y056158D01*
X001452Y056141D01*
X001479Y056120D01*
X001504Y056096D01*
X001526Y056069D01*
X001544Y056041D01*
X001559Y056010D01*
X001571Y055978D01*
X001579Y055944D01*
X001583Y055910D01*
X001583Y055876D01*
X001579Y055842D01*
X001571Y055808D01*
X001559Y055776D01*
X001544Y055745D01*
X001526Y055717D01*
X001504Y055690D01*
X001479Y055666D01*
X001452Y055645D01*
X001423Y055628D01*
X001392Y055613D01*
X001359Y055603D01*
X001326Y055596D01*
X001292Y055593D01*
X001257Y055594D01*
X001223Y055599D01*
X001190Y055608D01*
X001158Y055620D01*
X001128Y055636D01*
X001100Y055655D01*
X001074Y055678D01*
X001051Y055703D01*
X001031Y055731D01*
X001014Y055761D01*
X001000Y055792D01*
X000991Y055825D01*
X000985Y055859D01*
X000983Y055893D01*
X029608Y055893D02*
X029610Y055924D01*
X029616Y055955D01*
X029626Y055985D01*
X029639Y056013D01*
X029656Y056040D01*
X029676Y056064D01*
X029699Y056086D01*
X029724Y056104D01*
X029752Y056119D01*
X029781Y056131D01*
X029811Y056139D01*
X029842Y056143D01*
X029874Y056143D01*
X029905Y056139D01*
X029935Y056131D01*
X029964Y056119D01*
X029992Y056104D01*
X030017Y056086D01*
X030040Y056064D01*
X030060Y056040D01*
X030077Y056013D01*
X030090Y055985D01*
X030100Y055955D01*
X030106Y055924D01*
X030108Y055893D01*
X030106Y055862D01*
X030100Y055831D01*
X030090Y055801D01*
X030077Y055773D01*
X030060Y055746D01*
X030040Y055722D01*
X030017Y055700D01*
X029992Y055682D01*
X029964Y055667D01*
X029935Y055655D01*
X029905Y055647D01*
X029874Y055643D01*
X029842Y055643D01*
X029811Y055647D01*
X029781Y055655D01*
X029752Y055667D01*
X029724Y055682D01*
X029699Y055700D01*
X029676Y055722D01*
X029656Y055746D01*
X029639Y055773D01*
X029626Y055801D01*
X029616Y055831D01*
X029610Y055862D01*
X029608Y055893D01*
X060038Y055893D02*
X060040Y055927D01*
X060046Y055961D01*
X060055Y055994D01*
X060069Y056025D01*
X060086Y056055D01*
X060106Y056083D01*
X060129Y056108D01*
X060155Y056131D01*
X060183Y056150D01*
X060213Y056166D01*
X060245Y056178D01*
X060278Y056187D01*
X060312Y056192D01*
X060347Y056193D01*
X060381Y056190D01*
X060414Y056183D01*
X060447Y056173D01*
X060478Y056158D01*
X060507Y056141D01*
X060534Y056120D01*
X060559Y056096D01*
X060581Y056069D01*
X060599Y056041D01*
X060614Y056010D01*
X060626Y055978D01*
X060634Y055944D01*
X060638Y055910D01*
X060638Y055876D01*
X060634Y055842D01*
X060626Y055808D01*
X060614Y055776D01*
X060599Y055745D01*
X060581Y055717D01*
X060559Y055690D01*
X060534Y055666D01*
X060507Y055645D01*
X060478Y055628D01*
X060447Y055613D01*
X060414Y055603D01*
X060381Y055596D01*
X060347Y055593D01*
X060312Y055594D01*
X060278Y055599D01*
X060245Y055608D01*
X060213Y055620D01*
X060183Y055636D01*
X060155Y055655D01*
X060129Y055678D01*
X060106Y055703D01*
X060086Y055731D01*
X060069Y055761D01*
X060055Y055792D01*
X060046Y055825D01*
X060040Y055859D01*
X060038Y055893D01*
X060038Y001283D02*
X060040Y001317D01*
X060046Y001351D01*
X060055Y001384D01*
X060069Y001415D01*
X060086Y001445D01*
X060106Y001473D01*
X060129Y001498D01*
X060155Y001521D01*
X060183Y001540D01*
X060213Y001556D01*
X060245Y001568D01*
X060278Y001577D01*
X060312Y001582D01*
X060347Y001583D01*
X060381Y001580D01*
X060414Y001573D01*
X060447Y001563D01*
X060478Y001548D01*
X060507Y001531D01*
X060534Y001510D01*
X060559Y001486D01*
X060581Y001459D01*
X060599Y001431D01*
X060614Y001400D01*
X060626Y001368D01*
X060634Y001334D01*
X060638Y001300D01*
X060638Y001266D01*
X060634Y001232D01*
X060626Y001198D01*
X060614Y001166D01*
X060599Y001135D01*
X060581Y001107D01*
X060559Y001080D01*
X060534Y001056D01*
X060507Y001035D01*
X060478Y001018D01*
X060447Y001003D01*
X060414Y000993D01*
X060381Y000986D01*
X060347Y000983D01*
X060312Y000984D01*
X060278Y000989D01*
X060245Y000998D01*
X060213Y001010D01*
X060183Y001026D01*
X060155Y001045D01*
X060129Y001068D01*
X060106Y001093D01*
X060086Y001121D01*
X060069Y001151D01*
X060055Y001182D01*
X060046Y001215D01*
X060040Y001249D01*
X060038Y001283D01*
D11*
X058052Y017158D02*
X056274Y017158D01*
X056243Y017160D01*
X056213Y017165D01*
X056184Y017175D01*
X056156Y017187D01*
X056130Y017203D01*
X056106Y017222D01*
X056084Y017244D01*
X056065Y017268D01*
X056049Y017294D01*
X056037Y017322D01*
X056027Y017351D01*
X056022Y017381D01*
X056020Y017412D01*
X056020Y017793D01*
X056147Y017920D01*
X056147Y022746D01*
X056020Y022873D01*
X056020Y023254D01*
X056022Y023285D01*
X056027Y023315D01*
X056037Y023344D01*
X056049Y023372D01*
X056065Y023398D01*
X056084Y023422D01*
X056106Y023444D01*
X056130Y023463D01*
X056156Y023479D01*
X056184Y023491D01*
X056213Y023501D01*
X056243Y023506D01*
X056274Y023508D01*
X058052Y023508D01*
X058083Y023506D01*
X058113Y023501D01*
X058142Y023491D01*
X058170Y023479D01*
X058196Y023463D01*
X058220Y023444D01*
X058242Y023422D01*
X058261Y023398D01*
X058277Y023372D01*
X058289Y023344D01*
X058299Y023315D01*
X058304Y023285D01*
X058306Y023254D01*
X058306Y022873D01*
X058179Y022746D01*
X058179Y017920D01*
X058306Y017793D01*
X058306Y017412D01*
X058304Y017381D01*
X058299Y017351D01*
X058289Y017322D01*
X058277Y017294D01*
X058261Y017268D01*
X058242Y017244D01*
X058220Y017222D01*
X058196Y017203D01*
X058170Y017187D01*
X058142Y017175D01*
X058113Y017165D01*
X058083Y017160D01*
X058052Y017158D01*
X054496Y017412D02*
X054496Y017793D01*
X054369Y017920D01*
X054369Y022746D01*
X054496Y022873D01*
X054496Y023254D01*
X054494Y023285D01*
X054489Y023315D01*
X054479Y023344D01*
X054467Y023372D01*
X054451Y023398D01*
X054432Y023422D01*
X054410Y023444D01*
X054386Y023463D01*
X054360Y023479D01*
X054332Y023491D01*
X054303Y023501D01*
X054273Y023506D01*
X054242Y023508D01*
X052464Y023508D01*
X052433Y023506D01*
X052403Y023501D01*
X052374Y023491D01*
X052346Y023479D01*
X052320Y023463D01*
X052296Y023444D01*
X052274Y023422D01*
X052255Y023398D01*
X052239Y023372D01*
X052227Y023344D01*
X052217Y023315D01*
X052212Y023285D01*
X052210Y023254D01*
X052210Y022873D01*
X052337Y022746D01*
X052337Y017920D01*
X052210Y017793D01*
X052210Y017412D01*
X052212Y017381D01*
X052217Y017351D01*
X052227Y017322D01*
X052239Y017294D01*
X052255Y017268D01*
X052274Y017244D01*
X052296Y017222D01*
X052320Y017203D01*
X052346Y017187D01*
X052374Y017175D01*
X052403Y017165D01*
X052433Y017160D01*
X052464Y017158D01*
X054242Y017158D01*
X054273Y017160D01*
X054303Y017165D01*
X054332Y017175D01*
X054360Y017187D01*
X054386Y017203D01*
X054410Y017222D01*
X054432Y017244D01*
X054451Y017268D01*
X054467Y017294D01*
X054479Y017322D01*
X054489Y017351D01*
X054494Y017381D01*
X054496Y017412D01*
X051448Y016904D02*
X051448Y023762D01*
X051446Y023793D01*
X051441Y023823D01*
X051431Y023852D01*
X051419Y023880D01*
X051403Y023906D01*
X051384Y023930D01*
X051362Y023952D01*
X051338Y023971D01*
X051312Y023987D01*
X051284Y023999D01*
X051255Y024009D01*
X051225Y024014D01*
X051194Y024016D01*
X049162Y024016D01*
X049131Y024014D01*
X049101Y024009D01*
X049072Y023999D01*
X049044Y023987D01*
X049018Y023971D01*
X048994Y023952D01*
X048972Y023930D01*
X048953Y023906D01*
X048937Y023880D01*
X048925Y023852D01*
X048915Y023823D01*
X048910Y023793D01*
X048908Y023762D01*
X048908Y016904D01*
X048910Y016873D01*
X048915Y016843D01*
X048925Y016814D01*
X048937Y016786D01*
X048953Y016760D01*
X048972Y016736D01*
X048994Y016714D01*
X049018Y016695D01*
X049044Y016679D01*
X049072Y016667D01*
X049101Y016657D01*
X049131Y016652D01*
X049162Y016650D01*
X051194Y016650D01*
X051225Y016652D01*
X051255Y016657D01*
X051284Y016667D01*
X051312Y016679D01*
X051338Y016695D01*
X051362Y016714D01*
X051384Y016736D01*
X051403Y016760D01*
X051419Y016786D01*
X051431Y016814D01*
X051441Y016843D01*
X051446Y016873D01*
X051448Y016904D01*
X050178Y018809D02*
X050178Y020003D01*
X050178Y020638D02*
X050178Y021857D01*
X047638Y024143D02*
X012205Y024143D01*
X012078Y024143D02*
X012078Y025413D01*
X012148Y025415D01*
X012218Y025421D01*
X012287Y025430D01*
X012356Y025444D01*
X012424Y025461D01*
X012490Y025482D01*
X012556Y025506D01*
X012620Y025534D01*
X012682Y025566D01*
X012743Y025601D01*
X012802Y025639D01*
X012858Y025681D01*
X012912Y025725D01*
X012964Y025773D01*
X013012Y025823D01*
X013058Y025876D01*
X013101Y025931D01*
X013141Y025988D01*
X013178Y026048D01*
X013211Y026110D01*
X013241Y026173D01*
X013267Y026238D01*
X013290Y026304D01*
X013309Y026371D01*
X013324Y026440D01*
X013336Y026509D01*
X013344Y026578D01*
X013348Y026648D01*
X013348Y026718D01*
X013344Y026788D01*
X013336Y026857D01*
X013324Y026926D01*
X013309Y026995D01*
X013290Y027062D01*
X013267Y027128D01*
X013241Y027193D01*
X013211Y027256D01*
X013178Y027318D01*
X013141Y027378D01*
X013101Y027435D01*
X013058Y027490D01*
X013012Y027543D01*
X012964Y027593D01*
X012912Y027641D01*
X012858Y027685D01*
X012802Y027727D01*
X012743Y027765D01*
X012682Y027800D01*
X012620Y027832D01*
X012556Y027860D01*
X012490Y027884D01*
X012424Y027905D01*
X012356Y027922D01*
X012287Y027936D01*
X012218Y027945D01*
X012148Y027951D01*
X012078Y027953D01*
X012078Y029223D01*
X047638Y029223D01*
X047638Y024143D01*
X048273Y028588D02*
X048273Y029223D01*
X048273Y028588D02*
X048908Y028588D01*
X051448Y028588D02*
X052083Y028588D01*
X052083Y029223D01*
X052083Y031763D02*
X052083Y032398D01*
X051448Y032398D01*
X051448Y033668D02*
X052083Y033668D01*
X052083Y034303D01*
X052083Y036843D02*
X052083Y037478D01*
X051448Y037478D01*
X048908Y037478D02*
X048273Y037478D01*
X048273Y036843D01*
X047638Y036843D02*
X047638Y037478D01*
X047003Y037478D01*
X044463Y037478D02*
X043828Y037478D01*
X043828Y036843D01*
X043828Y034303D02*
X043828Y033668D01*
X044463Y033668D01*
X047003Y033668D02*
X047638Y033668D01*
X047638Y034303D01*
X048273Y034303D02*
X048273Y033668D01*
X048908Y033668D01*
X048908Y032398D02*
X048273Y032398D01*
X048273Y031763D01*
X042177Y019698D02*
X035319Y019698D01*
X035288Y019696D01*
X035258Y019691D01*
X035229Y019681D01*
X035201Y019669D01*
X035175Y019653D01*
X035151Y019634D01*
X035129Y019612D01*
X035110Y019588D01*
X035094Y019562D01*
X035082Y019534D01*
X035072Y019505D01*
X035067Y019475D01*
X035065Y019444D01*
X035065Y017412D01*
X035067Y017381D01*
X035072Y017351D01*
X035082Y017322D01*
X035094Y017294D01*
X035110Y017268D01*
X035129Y017244D01*
X035151Y017222D01*
X035175Y017203D01*
X035201Y017187D01*
X035229Y017175D01*
X035258Y017165D01*
X035288Y017160D01*
X035319Y017158D01*
X042177Y017158D01*
X042208Y017160D01*
X042238Y017165D01*
X042267Y017175D01*
X042295Y017187D01*
X042321Y017203D01*
X042345Y017222D01*
X042367Y017244D01*
X042386Y017268D01*
X042402Y017294D01*
X042414Y017322D01*
X042424Y017351D01*
X042429Y017381D01*
X042431Y017412D01*
X042431Y019444D01*
X042429Y019475D01*
X042424Y019505D01*
X042414Y019534D01*
X042402Y019562D01*
X042386Y019588D01*
X042367Y019612D01*
X042345Y019634D01*
X042321Y019653D01*
X042295Y019669D01*
X042267Y019681D01*
X042238Y019691D01*
X042208Y019696D01*
X042177Y019698D01*
X040272Y018428D02*
X039078Y018428D01*
X038443Y018428D02*
X037224Y018428D01*
X034938Y015253D02*
X034938Y014618D01*
X034938Y015253D02*
X034303Y015253D01*
X031763Y015253D02*
X031128Y015253D01*
X031128Y014618D01*
X029223Y014618D02*
X029223Y013983D01*
X029223Y014618D02*
X028588Y014618D01*
X026048Y014618D02*
X025413Y014618D01*
X025413Y013983D01*
X024778Y013983D02*
X024778Y014618D01*
X024143Y014618D01*
X021603Y014618D02*
X020968Y014618D01*
X020968Y013983D01*
X020968Y011443D02*
X020968Y010808D01*
X021603Y010808D01*
X023381Y009284D02*
X018555Y009284D01*
X018428Y009411D01*
X018047Y009411D01*
X018016Y009409D01*
X017986Y009404D01*
X017957Y009394D01*
X017929Y009382D01*
X017903Y009366D01*
X017879Y009347D01*
X017857Y009325D01*
X017838Y009301D01*
X017822Y009275D01*
X017810Y009247D01*
X017800Y009218D01*
X017795Y009188D01*
X017793Y009157D01*
X017793Y007379D01*
X017795Y007348D01*
X017800Y007318D01*
X017810Y007289D01*
X017822Y007261D01*
X017838Y007235D01*
X017857Y007211D01*
X017879Y007189D01*
X017903Y007170D01*
X017929Y007154D01*
X017957Y007142D01*
X017986Y007132D01*
X018016Y007127D01*
X018047Y007125D01*
X018428Y007125D01*
X018555Y007252D01*
X023381Y007252D01*
X023508Y007125D01*
X023889Y007125D01*
X023920Y007127D01*
X023950Y007132D01*
X023979Y007142D01*
X024007Y007154D01*
X024033Y007170D01*
X024057Y007189D01*
X024079Y007211D01*
X024098Y007235D01*
X024114Y007261D01*
X024126Y007289D01*
X024136Y007318D01*
X024141Y007348D01*
X024143Y007379D01*
X024143Y009157D01*
X024141Y009188D01*
X024136Y009218D01*
X024126Y009247D01*
X024114Y009275D01*
X024098Y009301D01*
X024079Y009325D01*
X024057Y009347D01*
X024033Y009366D01*
X024007Y009382D01*
X023979Y009394D01*
X023950Y009404D01*
X023920Y009409D01*
X023889Y009411D01*
X023508Y009411D01*
X023381Y009284D01*
X024143Y010808D02*
X024778Y010808D01*
X024778Y011443D01*
X025413Y011443D02*
X025413Y010808D01*
X026048Y010808D01*
X028588Y010808D02*
X029223Y010808D01*
X029223Y011443D01*
X031128Y011443D02*
X031128Y012078D01*
X031128Y011443D02*
X031763Y011443D01*
X034303Y011443D02*
X034938Y011443D01*
X034938Y012078D01*
X034938Y010808D02*
X034303Y010808D01*
X034303Y010173D01*
X034303Y007633D02*
X034303Y006998D01*
X034938Y006998D01*
X037478Y006998D02*
X038113Y006998D01*
X038113Y007633D01*
X038113Y010173D02*
X038113Y010808D01*
X037478Y010808D01*
X039383Y010427D02*
X039383Y003569D01*
X039385Y003538D01*
X039390Y003508D01*
X039400Y003479D01*
X039412Y003451D01*
X039428Y003425D01*
X039447Y003401D01*
X039469Y003379D01*
X039493Y003360D01*
X039519Y003344D01*
X039547Y003332D01*
X039576Y003322D01*
X039606Y003317D01*
X039637Y003315D01*
X041669Y003315D01*
X041700Y003317D01*
X041730Y003322D01*
X041759Y003332D01*
X041787Y003344D01*
X041813Y003360D01*
X041837Y003379D01*
X041859Y003401D01*
X041878Y003425D01*
X041894Y003451D01*
X041906Y003479D01*
X041916Y003508D01*
X041921Y003538D01*
X041923Y003569D01*
X041923Y010427D01*
X041921Y010458D01*
X041916Y010488D01*
X041906Y010517D01*
X041894Y010545D01*
X041878Y010571D01*
X041859Y010595D01*
X041837Y010617D01*
X041813Y010636D01*
X041787Y010652D01*
X041759Y010664D01*
X041730Y010674D01*
X041700Y010679D01*
X041669Y010681D01*
X039637Y010681D01*
X039606Y010679D01*
X039576Y010674D01*
X039547Y010664D01*
X039519Y010652D01*
X039493Y010636D01*
X039469Y010617D01*
X039447Y010595D01*
X039428Y010571D01*
X039412Y010545D01*
X039400Y010517D01*
X039390Y010488D01*
X039385Y010458D01*
X039383Y010427D01*
X040653Y008522D02*
X040653Y007328D01*
X040653Y006693D02*
X040653Y005474D01*
X043828Y018428D02*
X043830Y018499D01*
X043836Y018570D01*
X043846Y018641D01*
X043860Y018711D01*
X043878Y018780D01*
X043899Y018847D01*
X043925Y018914D01*
X043954Y018979D01*
X043986Y019042D01*
X044023Y019104D01*
X044062Y019163D01*
X044105Y019220D01*
X044151Y019274D01*
X044200Y019326D01*
X044252Y019375D01*
X044306Y019421D01*
X044363Y019464D01*
X044422Y019503D01*
X044484Y019540D01*
X044547Y019572D01*
X044612Y019601D01*
X044679Y019627D01*
X044746Y019648D01*
X044815Y019666D01*
X044885Y019680D01*
X044956Y019690D01*
X045027Y019696D01*
X045098Y019698D01*
X045169Y019696D01*
X045240Y019690D01*
X045311Y019680D01*
X045381Y019666D01*
X045450Y019648D01*
X045517Y019627D01*
X045584Y019601D01*
X045649Y019572D01*
X045712Y019540D01*
X045774Y019503D01*
X045833Y019464D01*
X045890Y019421D01*
X045944Y019375D01*
X045996Y019326D01*
X046045Y019274D01*
X046091Y019220D01*
X046134Y019163D01*
X046173Y019104D01*
X046210Y019042D01*
X046242Y018979D01*
X046271Y018914D01*
X046297Y018847D01*
X046318Y018780D01*
X046336Y018711D01*
X046350Y018641D01*
X046360Y018570D01*
X046366Y018499D01*
X046368Y018428D01*
X046366Y018357D01*
X046360Y018286D01*
X046350Y018215D01*
X046336Y018145D01*
X046318Y018076D01*
X046297Y018009D01*
X046271Y017942D01*
X046242Y017877D01*
X046210Y017814D01*
X046173Y017752D01*
X046134Y017693D01*
X046091Y017636D01*
X046045Y017582D01*
X045996Y017530D01*
X045944Y017481D01*
X045890Y017435D01*
X045833Y017392D01*
X045774Y017353D01*
X045712Y017316D01*
X045649Y017284D01*
X045584Y017255D01*
X045517Y017229D01*
X045450Y017208D01*
X045381Y017190D01*
X045311Y017176D01*
X045240Y017166D01*
X045169Y017160D01*
X045098Y017158D01*
X045027Y017160D01*
X044956Y017166D01*
X044885Y017176D01*
X044815Y017190D01*
X044746Y017208D01*
X044679Y017229D01*
X044612Y017255D01*
X044547Y017284D01*
X044484Y017316D01*
X044422Y017353D01*
X044363Y017392D01*
X044306Y017435D01*
X044252Y017481D01*
X044200Y017530D01*
X044151Y017582D01*
X044105Y017636D01*
X044062Y017693D01*
X044023Y017752D01*
X043986Y017814D01*
X043954Y017877D01*
X043925Y017942D01*
X043899Y018009D01*
X043878Y018076D01*
X043860Y018145D01*
X043846Y018215D01*
X043836Y018286D01*
X043830Y018357D01*
X043828Y018428D01*
X024143Y005347D02*
X024143Y003569D01*
X024141Y003538D01*
X024136Y003508D01*
X024126Y003479D01*
X024114Y003451D01*
X024098Y003425D01*
X024079Y003401D01*
X024057Y003379D01*
X024033Y003360D01*
X024007Y003344D01*
X023979Y003332D01*
X023950Y003322D01*
X023920Y003317D01*
X023889Y003315D01*
X023508Y003315D01*
X023381Y003442D01*
X018555Y003442D01*
X018428Y003315D01*
X018047Y003315D01*
X018016Y003317D01*
X017986Y003322D01*
X017957Y003332D01*
X017929Y003344D01*
X017903Y003360D01*
X017879Y003379D01*
X017857Y003401D01*
X017838Y003425D01*
X017822Y003451D01*
X017810Y003479D01*
X017800Y003508D01*
X017795Y003538D01*
X017793Y003569D01*
X017793Y005347D01*
X017795Y005378D01*
X017800Y005408D01*
X017810Y005437D01*
X017822Y005465D01*
X017838Y005491D01*
X017857Y005515D01*
X017879Y005537D01*
X017903Y005556D01*
X017929Y005572D01*
X017957Y005584D01*
X017986Y005594D01*
X018016Y005599D01*
X018047Y005601D01*
X018428Y005601D01*
X018555Y005474D01*
X023381Y005474D01*
X023508Y005601D01*
X023889Y005601D01*
X023920Y005599D01*
X023950Y005594D01*
X023979Y005584D01*
X024007Y005572D01*
X024033Y005556D01*
X024057Y005537D01*
X024079Y005515D01*
X024098Y005491D01*
X024114Y005465D01*
X024126Y005437D01*
X024136Y005408D01*
X024141Y005378D01*
X024143Y005347D01*
X020079Y017412D02*
X019698Y017412D01*
X019571Y017539D01*
X014745Y017539D01*
X014618Y017412D01*
X014237Y017412D01*
X014206Y017414D01*
X014176Y017419D01*
X014147Y017429D01*
X014119Y017441D01*
X014093Y017457D01*
X014069Y017476D01*
X014047Y017498D01*
X014028Y017522D01*
X014012Y017548D01*
X014000Y017576D01*
X013990Y017605D01*
X013985Y017635D01*
X013983Y017666D01*
X013983Y019444D01*
X013985Y019475D01*
X013990Y019505D01*
X014000Y019534D01*
X014012Y019562D01*
X014028Y019588D01*
X014047Y019612D01*
X014069Y019634D01*
X014093Y019653D01*
X014119Y019669D01*
X014147Y019681D01*
X014176Y019691D01*
X014206Y019696D01*
X014237Y019698D01*
X014618Y019698D01*
X014745Y019571D01*
X019571Y019571D01*
X019698Y019698D01*
X020079Y019698D01*
X020110Y019696D01*
X020140Y019691D01*
X020169Y019681D01*
X020197Y019669D01*
X020223Y019653D01*
X020247Y019634D01*
X020269Y019612D01*
X020288Y019588D01*
X020304Y019562D01*
X020316Y019534D01*
X020326Y019505D01*
X020331Y019475D01*
X020333Y019444D01*
X020333Y017666D01*
X020331Y017635D01*
X020326Y017605D01*
X020316Y017576D01*
X020304Y017548D01*
X020288Y017522D01*
X020269Y017498D01*
X020247Y017476D01*
X020223Y017457D01*
X020197Y017441D01*
X020169Y017429D01*
X020140Y017419D01*
X020110Y017414D01*
X020079Y017412D01*
X011316Y015253D02*
X011316Y014872D01*
X011314Y014841D01*
X011309Y014811D01*
X011299Y014782D01*
X011287Y014754D01*
X011271Y014728D01*
X011252Y014704D01*
X011230Y014682D01*
X011206Y014663D01*
X011180Y014647D01*
X011152Y014635D01*
X011123Y014625D01*
X011093Y014620D01*
X011062Y014618D01*
X009284Y014618D01*
X009253Y014620D01*
X009223Y014625D01*
X009194Y014635D01*
X009166Y014647D01*
X009140Y014663D01*
X009116Y014682D01*
X009094Y014704D01*
X009075Y014728D01*
X009059Y014754D01*
X009047Y014782D01*
X009037Y014811D01*
X009032Y014841D01*
X009030Y014872D01*
X009030Y015253D01*
X009157Y015380D01*
X009157Y020206D01*
X009030Y020333D01*
X009030Y020714D01*
X009032Y020745D01*
X009037Y020775D01*
X009047Y020804D01*
X009059Y020832D01*
X009075Y020858D01*
X009094Y020882D01*
X009116Y020904D01*
X009140Y020923D01*
X009166Y020939D01*
X009194Y020951D01*
X009223Y020961D01*
X009253Y020966D01*
X009284Y020968D01*
X011062Y020968D01*
X011093Y020966D01*
X011123Y020961D01*
X011152Y020951D01*
X011180Y020939D01*
X011206Y020923D01*
X011230Y020904D01*
X011252Y020882D01*
X011271Y020858D01*
X011287Y020832D01*
X011299Y020804D01*
X011309Y020775D01*
X011314Y020745D01*
X011316Y020714D01*
X011316Y020333D01*
X011189Y020206D01*
X011189Y015380D01*
X011316Y015253D01*
X008903Y016142D02*
X008268Y016142D01*
X008903Y016142D02*
X008903Y016777D01*
X008395Y014872D02*
X007760Y014872D01*
X008395Y014872D02*
X008395Y014237D01*
X008395Y011697D02*
X008395Y011062D01*
X007760Y011062D01*
X005220Y011062D02*
X004585Y011062D01*
X004585Y011697D01*
X004585Y014237D02*
X004585Y014872D01*
X005220Y014872D01*
X005093Y016142D02*
X005093Y016777D01*
X005093Y016142D02*
X005728Y016142D01*
X005093Y019317D02*
X005093Y019952D01*
X005728Y019952D01*
X008268Y019952D02*
X008903Y019952D01*
X008903Y019317D01*
X006998Y023762D02*
X006363Y023762D01*
X006998Y023762D02*
X006998Y024397D01*
X006998Y026937D02*
X006998Y027572D01*
X006363Y027572D01*
X003823Y027572D02*
X003188Y027572D01*
X003188Y026937D01*
X003188Y024397D02*
X003188Y023762D01*
X003823Y023762D01*
X006744Y034938D02*
X006109Y035573D01*
X006109Y036843D01*
X006744Y037478D01*
X006109Y038113D01*
X006109Y039383D01*
X006744Y040018D01*
X006109Y040653D01*
X006109Y041923D01*
X006744Y042558D01*
X006109Y043193D01*
X006109Y044463D01*
X006744Y045098D01*
X006109Y045733D01*
X006109Y047003D01*
X006744Y047638D01*
X008014Y047638D01*
X008649Y047003D01*
X008649Y045733D01*
X008014Y045098D01*
X008649Y044463D01*
X008649Y043193D01*
X008014Y042558D01*
X008649Y041923D01*
X008649Y040653D01*
X008014Y040018D01*
X008649Y039383D01*
X008649Y038113D01*
X008014Y037478D01*
X008649Y036843D01*
X008649Y035573D01*
X008014Y034938D01*
X006744Y034938D01*
X007633Y007379D02*
X008268Y007379D01*
X008268Y006744D01*
X008268Y004204D02*
X008268Y003569D01*
X007633Y003569D01*
X005093Y003569D02*
X004458Y003569D01*
X004458Y004204D01*
X004458Y006744D02*
X004458Y007379D01*
X005093Y007379D01*
X041542Y045225D02*
X043574Y045225D01*
X043605Y045227D01*
X043635Y045232D01*
X043664Y045242D01*
X043692Y045254D01*
X043718Y045270D01*
X043742Y045289D01*
X043764Y045311D01*
X043783Y045335D01*
X043799Y045361D01*
X043811Y045389D01*
X043821Y045418D01*
X043826Y045448D01*
X043828Y045479D01*
X043828Y052337D01*
X043826Y052368D01*
X043821Y052398D01*
X043811Y052427D01*
X043799Y052455D01*
X043783Y052481D01*
X043764Y052505D01*
X043742Y052527D01*
X043718Y052546D01*
X043692Y052562D01*
X043664Y052574D01*
X043635Y052584D01*
X043605Y052589D01*
X043574Y052591D01*
X041542Y052591D01*
X041511Y052589D01*
X041481Y052584D01*
X041452Y052574D01*
X041424Y052562D01*
X041398Y052546D01*
X041374Y052527D01*
X041352Y052505D01*
X041333Y052481D01*
X041317Y052455D01*
X041305Y052427D01*
X041295Y052398D01*
X041290Y052368D01*
X041288Y052337D01*
X041288Y045479D01*
X041290Y045448D01*
X041295Y045418D01*
X041305Y045389D01*
X041317Y045361D01*
X041333Y045335D01*
X041352Y045311D01*
X041374Y045289D01*
X041398Y045270D01*
X041424Y045254D01*
X041452Y045242D01*
X041481Y045232D01*
X041511Y045227D01*
X041542Y045225D01*
X042558Y047384D02*
X042558Y048603D01*
X042558Y049238D02*
X042558Y050432D01*
X046114Y048730D02*
X046114Y048400D01*
X047003Y048400D01*
X047892Y048400D01*
X047892Y048730D01*
X046114Y048730D01*
X045733Y047892D02*
X045733Y047130D01*
X045352Y047511D02*
X046114Y047511D01*
X047003Y047384D02*
X047003Y048400D01*
X046072Y046000D02*
X045969Y046035D01*
X045867Y046074D01*
X045767Y046117D01*
X045668Y046162D01*
X045571Y046212D01*
X045475Y046265D01*
X045382Y046321D01*
X045290Y046381D01*
X045201Y046443D01*
X045114Y046509D01*
X045030Y046578D01*
X044948Y046650D01*
X044869Y046725D01*
X044792Y046803D01*
X044718Y046883D01*
X044647Y046966D01*
X044579Y047051D01*
X044515Y047139D01*
X044453Y047229D01*
X044395Y047321D01*
X044340Y047415D01*
X044288Y047511D01*
X044240Y047609D01*
X044195Y047709D01*
X044154Y047810D01*
X044117Y047912D01*
X044083Y048016D01*
X044053Y048121D01*
X044027Y048227D01*
X044005Y048333D01*
X043986Y048441D01*
X043971Y048549D01*
X043960Y048657D01*
X043953Y048766D01*
X043950Y048875D01*
X043951Y048984D01*
X043956Y049093D01*
X043964Y049202D01*
X043977Y049310D01*
X043993Y049418D01*
X044013Y049525D01*
X044037Y049632D01*
X044065Y049737D01*
X044096Y049842D01*
X044131Y049945D01*
X044170Y050047D01*
X044213Y050147D01*
X044259Y050246D01*
X044308Y050343D01*
X044361Y050439D01*
X044418Y050532D01*
X044477Y050623D01*
X044540Y050712D01*
X044606Y050799D01*
X044675Y050884D01*
X044747Y050965D01*
X044822Y051045D01*
X044900Y051121D01*
X044980Y051195D01*
X045063Y051266D01*
X045149Y051333D01*
X045237Y051398D01*
X045327Y051460D01*
X045419Y051518D01*
X045513Y051573D01*
X045609Y051624D01*
X045707Y051672D01*
X045807Y051717D01*
X045908Y051758D01*
X046010Y051795D01*
X046114Y051829D01*
X047003Y050432D02*
X047003Y049416D01*
X047892Y051829D02*
X047996Y051795D01*
X048098Y051758D01*
X048199Y051717D01*
X048299Y051672D01*
X048397Y051624D01*
X048493Y051573D01*
X048587Y051518D01*
X048680Y051459D01*
X048770Y051398D01*
X048857Y051333D01*
X048943Y051265D01*
X049026Y051195D01*
X049106Y051121D01*
X049184Y051044D01*
X049259Y050965D01*
X049331Y050883D01*
X049400Y050799D01*
X049466Y050712D01*
X049529Y050623D01*
X049589Y050531D01*
X049645Y050438D01*
X049698Y050342D01*
X049748Y050245D01*
X049794Y050146D01*
X049836Y050046D01*
X049875Y049944D01*
X049910Y049841D01*
X049942Y049736D01*
X049969Y049631D01*
X049993Y049524D01*
X050013Y049417D01*
X050030Y049309D01*
X050042Y049201D01*
X050050Y049092D01*
X050055Y048983D01*
X050056Y048874D01*
X050053Y048765D01*
X050046Y048656D01*
X050035Y048547D01*
X050020Y048439D01*
X050001Y048332D01*
X049979Y048225D01*
X049952Y048119D01*
X049922Y048014D01*
X049888Y047910D01*
X049851Y047808D01*
X049810Y047707D01*
X049765Y047607D01*
X049717Y047510D01*
X049665Y047413D01*
X049610Y047319D01*
X049552Y047227D01*
X049490Y047137D01*
X049425Y047049D01*
X049357Y046964D01*
X049286Y046881D01*
X049212Y046801D01*
X049136Y046723D01*
X049056Y046648D01*
X048974Y046577D01*
X048890Y046508D01*
X048803Y046442D01*
X048713Y046379D01*
X048622Y046320D01*
X048528Y046263D01*
X048433Y046211D01*
X048336Y046161D01*
X048237Y046115D01*
X048136Y046073D01*
X048034Y046034D01*
X047931Y045999D01*
X047826Y045968D01*
D12*
X048234Y049479D02*
X048234Y050055D01*
X048234Y049767D02*
X049098Y049767D01*
X049098Y050679D02*
X048234Y050679D01*
X048234Y050391D02*
X048234Y050968D01*
X045288Y052083D02*
X045288Y052464D01*
X045098Y052655D01*
X045288Y053062D02*
X045288Y053824D01*
X045288Y053443D02*
X044144Y053443D01*
X044526Y053062D01*
X044335Y052655D02*
X044144Y052464D01*
X044144Y052083D01*
X044335Y051892D01*
X045098Y051892D01*
X045288Y052083D01*
X040843Y047474D02*
X040843Y046712D01*
X040081Y047474D01*
X039890Y047474D01*
X039699Y047284D01*
X039699Y046902D01*
X039890Y046712D01*
X039890Y046305D02*
X039699Y046114D01*
X039699Y045733D01*
X039890Y045542D01*
X040653Y045542D01*
X040843Y045733D01*
X040843Y046114D01*
X040653Y046305D01*
X038748Y053353D02*
X038748Y053861D01*
X020968Y053861D01*
X020968Y053353D01*
X020968Y038113D02*
X020968Y037859D01*
X038748Y037859D01*
X038748Y038113D01*
X043891Y038304D02*
X044463Y038304D01*
X044654Y038494D01*
X044654Y038876D01*
X044463Y039066D01*
X043891Y039066D01*
X043891Y037922D01*
X044273Y038304D02*
X044654Y037922D01*
X045061Y038113D02*
X045061Y038876D01*
X045251Y039066D01*
X045633Y039066D01*
X045823Y038876D01*
X046230Y039066D02*
X046993Y039066D01*
X046993Y038876D01*
X046230Y038113D01*
X046230Y037922D01*
X045823Y038113D02*
X045633Y037922D01*
X045251Y037922D01*
X045061Y038113D01*
X047399Y037922D02*
X048162Y039066D01*
X048336Y039066D02*
X048908Y039066D01*
X049099Y038876D01*
X049099Y038494D01*
X048908Y038304D01*
X048336Y038304D01*
X048569Y038304D02*
X049141Y038304D01*
X049331Y038494D01*
X049331Y038876D01*
X049141Y039066D01*
X048569Y039066D01*
X048569Y037922D01*
X048336Y037922D02*
X048336Y039066D01*
X048718Y038304D02*
X049099Y037922D01*
X049331Y037922D02*
X048950Y038304D01*
X049506Y038113D02*
X049506Y038876D01*
X049696Y039066D01*
X050078Y039066D01*
X050268Y038876D01*
X050310Y039066D02*
X050501Y038876D01*
X050501Y038494D01*
X050310Y038304D01*
X049738Y038304D01*
X049506Y038113D02*
X049696Y037922D01*
X050078Y037922D01*
X050268Y038113D01*
X050675Y038113D02*
X050866Y037922D01*
X051247Y037922D01*
X051438Y038113D01*
X051438Y038494D01*
X051247Y038685D01*
X051056Y038685D01*
X050675Y038494D01*
X050675Y039066D01*
X051438Y039066D01*
X051289Y039066D02*
X051289Y037922D01*
X050908Y037922D02*
X051670Y037922D01*
X052077Y038113D02*
X052077Y038304D01*
X052268Y038494D01*
X052649Y038494D01*
X052840Y038304D01*
X052840Y038113D01*
X052649Y037922D01*
X052268Y037922D01*
X052077Y038113D01*
X052268Y038494D02*
X052077Y038685D01*
X052077Y038876D01*
X052268Y039066D01*
X052649Y039066D01*
X052840Y038876D01*
X052840Y038685D01*
X052649Y038494D01*
X051289Y039066D02*
X050908Y038685D01*
X050310Y039066D02*
X049738Y039066D01*
X049738Y037922D01*
X049696Y033986D02*
X049506Y033796D01*
X049506Y033033D01*
X049696Y032842D01*
X050078Y032842D01*
X050268Y033033D01*
X050675Y033414D02*
X051438Y033414D01*
X051247Y032842D02*
X051247Y033986D01*
X050675Y033414D01*
X050268Y033796D02*
X050078Y033986D01*
X049696Y033986D01*
X049099Y033796D02*
X049099Y033414D01*
X048908Y033224D01*
X048336Y033224D01*
X048718Y033224D02*
X049099Y032842D01*
X048336Y032842D02*
X048336Y033986D01*
X048908Y033986D01*
X049099Y033796D01*
X052082Y023418D02*
X052273Y023418D01*
X052463Y023228D01*
X052654Y023418D01*
X052845Y023418D01*
X053035Y023228D01*
X053035Y022846D01*
X052845Y022656D01*
X052845Y022249D02*
X053035Y022058D01*
X053035Y021677D01*
X052845Y021486D01*
X052082Y021486D01*
X051891Y021677D01*
X051891Y022058D01*
X052082Y022249D01*
X052082Y022656D02*
X051891Y022846D01*
X051891Y023228D01*
X052082Y023418D01*
X052463Y023228D02*
X052463Y023037D01*
X054939Y023037D02*
X054939Y022275D01*
X055130Y021868D02*
X055511Y021868D01*
X055702Y021677D01*
X055702Y021105D01*
X056083Y021105D02*
X054939Y021105D01*
X054939Y021677D01*
X055130Y021868D01*
X055702Y021487D02*
X056083Y021868D01*
X056083Y022275D02*
X055893Y022275D01*
X055130Y023037D01*
X054939Y023037D01*
X058749Y023037D02*
X058940Y022656D01*
X059321Y022275D01*
X059321Y022847D01*
X059512Y023037D01*
X059703Y023037D01*
X059893Y022847D01*
X059893Y022465D01*
X059703Y022275D01*
X059321Y022275D01*
X059321Y021868D02*
X059512Y021677D01*
X059512Y021105D01*
X059893Y021105D02*
X058749Y021105D01*
X058749Y021677D01*
X058940Y021868D01*
X059321Y021868D01*
X059512Y021487D02*
X059893Y021868D01*
X047320Y016675D02*
X047320Y016293D01*
X047130Y016103D01*
X047320Y015696D02*
X046939Y015315D01*
X046939Y015505D02*
X046939Y014933D01*
X047320Y014933D02*
X046176Y014933D01*
X046176Y015505D01*
X046367Y015696D01*
X046748Y015696D01*
X046939Y015505D01*
X046367Y016103D02*
X046176Y016293D01*
X046176Y016675D01*
X046367Y016865D01*
X046558Y016865D01*
X046748Y016675D01*
X046939Y016865D01*
X047130Y016865D01*
X047320Y016675D01*
X046748Y016675D02*
X046748Y016484D01*
X045463Y012396D02*
X045081Y012396D01*
X044891Y012206D01*
X044891Y012015D01*
X045081Y011824D01*
X045463Y011824D01*
X045653Y011634D01*
X045653Y011443D01*
X045463Y011252D01*
X045081Y011252D01*
X044891Y011443D01*
X044484Y011252D02*
X044103Y011634D01*
X044293Y011634D02*
X043721Y011634D01*
X043721Y011252D02*
X043721Y012396D01*
X044293Y012396D01*
X044484Y012206D01*
X044484Y011824D01*
X044293Y011634D01*
X043315Y011443D02*
X043315Y012206D01*
X043124Y012396D01*
X042743Y012396D01*
X042552Y012206D01*
X042552Y011443D01*
X042743Y011252D01*
X043124Y011252D01*
X043315Y011443D01*
X042145Y011443D02*
X041955Y011252D01*
X041573Y011252D01*
X041383Y011443D01*
X041573Y011824D02*
X041955Y011824D01*
X042145Y011634D01*
X042145Y011443D01*
X041573Y011824D02*
X041383Y012015D01*
X041383Y012206D01*
X041573Y012396D01*
X041955Y012396D01*
X042145Y012206D01*
X040976Y012396D02*
X040976Y011252D01*
X040213Y012396D01*
X040213Y011252D01*
X039806Y011252D02*
X039044Y011252D01*
X039044Y012396D01*
X039806Y012396D01*
X039425Y011824D02*
X039044Y011824D01*
X038637Y011634D02*
X038637Y011443D01*
X038446Y011252D01*
X038065Y011252D01*
X037874Y011443D01*
X038065Y011824D02*
X038446Y011824D01*
X038637Y011634D01*
X038637Y012206D02*
X038446Y012396D01*
X038065Y012396D01*
X037874Y012206D01*
X037874Y012015D01*
X038065Y011824D01*
X037468Y011062D02*
X036705Y011062D01*
X036298Y011443D02*
X036108Y011252D01*
X035726Y011252D01*
X035536Y011443D01*
X035726Y011824D02*
X036108Y011824D01*
X036298Y011634D01*
X036298Y011443D01*
X035726Y011824D02*
X035536Y012015D01*
X035536Y012206D01*
X035726Y012396D01*
X036108Y012396D01*
X036298Y012206D01*
X035129Y012396D02*
X035129Y011634D01*
X034748Y011252D01*
X034366Y011634D01*
X034366Y012396D01*
X033065Y015062D02*
X032683Y015062D01*
X032493Y015253D01*
X032086Y015062D02*
X032086Y016206D01*
X031954Y016269D02*
X031954Y016651D01*
X031763Y016841D01*
X031191Y016841D01*
X031191Y015697D01*
X030916Y015634D02*
X030154Y015634D01*
X030154Y015825D02*
X030535Y016206D01*
X030916Y015825D01*
X030916Y015062D01*
X031323Y015062D02*
X031323Y016206D01*
X032086Y015062D01*
X031954Y015697D02*
X031573Y016079D01*
X031763Y016079D02*
X031191Y016079D01*
X031763Y016079D02*
X031954Y016269D01*
X032361Y016269D02*
X033123Y016269D01*
X033065Y016206D02*
X033255Y016016D01*
X033255Y015825D01*
X033065Y015634D01*
X033255Y015444D01*
X033255Y015253D01*
X033065Y015062D01*
X033065Y015634D02*
X032874Y015634D01*
X033123Y015697D02*
X033123Y016460D01*
X032742Y016841D01*
X032361Y016460D01*
X032361Y015697D01*
X032493Y016016D02*
X032683Y016206D01*
X033065Y016206D01*
X033530Y016269D02*
X033530Y016841D01*
X034293Y016841D01*
X034102Y016460D02*
X034293Y016269D01*
X034293Y015888D01*
X034102Y015697D01*
X033721Y015697D01*
X033530Y015888D01*
X033530Y016269D02*
X033911Y016460D01*
X034102Y016460D01*
X035573Y020142D02*
X035954Y020142D01*
X036145Y020333D01*
X036552Y020714D02*
X037314Y020714D01*
X037124Y020142D02*
X037124Y021286D01*
X036552Y020714D01*
X036145Y021096D02*
X035954Y021286D01*
X035573Y021286D01*
X035382Y021096D01*
X035382Y020333D01*
X035573Y020142D01*
X030154Y015825D02*
X030154Y015062D01*
X028984Y015062D02*
X029747Y016206D01*
X028810Y016016D02*
X028810Y015825D01*
X028048Y015062D01*
X028810Y015062D01*
X028578Y015253D02*
X028387Y015062D01*
X028006Y015062D01*
X027815Y015253D01*
X027641Y015062D02*
X027641Y016206D01*
X027815Y016016D02*
X028006Y016206D01*
X028387Y016206D01*
X028578Y016016D01*
X028578Y015825D01*
X028387Y015634D01*
X028578Y015444D01*
X028578Y015253D01*
X028387Y015634D02*
X028196Y015634D01*
X028048Y016016D02*
X028238Y016206D01*
X028620Y016206D01*
X028810Y016016D01*
X027408Y015825D02*
X027408Y015062D01*
X027641Y015062D02*
X026878Y016206D01*
X026878Y015062D01*
X026646Y015062D02*
X026646Y015825D01*
X027027Y016206D01*
X027408Y015825D01*
X027408Y015634D02*
X026646Y015634D01*
X026471Y015634D02*
X025709Y015634D01*
X025709Y015825D02*
X026090Y016206D01*
X026471Y015825D01*
X026471Y015062D01*
X026239Y015062D02*
X025858Y015444D01*
X026048Y015444D02*
X025476Y015444D01*
X025476Y015062D02*
X025476Y016206D01*
X026048Y016206D01*
X026239Y016016D01*
X026239Y015634D01*
X026048Y015444D01*
X025709Y015825D02*
X025709Y015062D01*
X024539Y015062D02*
X025302Y016206D01*
X024133Y016016D02*
X024133Y015825D01*
X023370Y015062D01*
X024133Y015062D01*
X024133Y016016D02*
X023942Y016206D01*
X023561Y016206D01*
X023370Y016016D01*
X022963Y015825D02*
X022963Y015062D01*
X022963Y015634D02*
X022201Y015634D01*
X022201Y015825D02*
X022582Y016206D01*
X022963Y015825D01*
X022201Y015825D02*
X022201Y015062D01*
X021794Y015062D02*
X021413Y015444D01*
X021603Y015444D02*
X021031Y015444D01*
X021031Y015062D02*
X021031Y016206D01*
X021603Y016206D01*
X021794Y016016D01*
X021794Y015634D01*
X021603Y015444D01*
X019232Y018365D02*
X018470Y018365D01*
X018851Y018365D02*
X018851Y017221D01*
X018063Y017221D02*
X017300Y017221D01*
X017300Y018365D01*
X018063Y018365D01*
X017682Y017793D02*
X017300Y017793D01*
X016894Y017603D02*
X016894Y017412D01*
X016703Y017221D01*
X016322Y017221D01*
X016131Y017412D01*
X016322Y017793D02*
X016703Y017793D01*
X016894Y017603D01*
X016894Y018175D02*
X016703Y018365D01*
X016322Y018365D01*
X016131Y018175D01*
X016131Y017984D01*
X016322Y017793D01*
X015724Y017221D02*
X014962Y017221D01*
X014962Y018365D01*
X015724Y018365D01*
X015343Y017793D02*
X014962Y017793D01*
X014555Y017793D02*
X014555Y018175D01*
X014364Y018365D01*
X013792Y018365D01*
X013792Y017221D01*
X013792Y017603D02*
X014364Y017603D01*
X014555Y017793D01*
X014174Y017603D02*
X014555Y017221D01*
X014936Y020142D02*
X014555Y020524D01*
X014745Y020524D02*
X014173Y020524D01*
X014173Y020142D02*
X014173Y021286D01*
X014745Y021286D01*
X014936Y021096D01*
X014936Y020714D01*
X014745Y020524D01*
X015343Y020142D02*
X016105Y020905D01*
X016105Y021096D01*
X015915Y021286D01*
X015533Y021286D01*
X015343Y021096D01*
X015343Y020142D02*
X016105Y020142D01*
X010596Y021350D02*
X009834Y020587D01*
X009834Y020396D01*
X009427Y020396D02*
X008664Y020396D01*
X009046Y020396D02*
X009046Y021540D01*
X008664Y021159D01*
X008258Y021350D02*
X008258Y020587D01*
X008067Y020396D01*
X007495Y020396D01*
X007495Y021540D01*
X008067Y021540D01*
X008258Y021350D01*
X007088Y021540D02*
X007088Y020396D01*
X006326Y021540D01*
X006326Y020396D01*
X005919Y020587D02*
X005919Y020968D01*
X005538Y020968D01*
X005919Y020587D02*
X005728Y020396D01*
X005347Y020396D01*
X005156Y020587D01*
X005156Y021350D01*
X005347Y021540D01*
X005728Y021540D01*
X005919Y021350D01*
X009834Y021540D02*
X010596Y021540D01*
X010596Y021350D01*
X008585Y016740D02*
X008585Y015978D01*
X008585Y016359D02*
X007441Y016359D01*
X007823Y015978D01*
X007750Y016270D02*
X007559Y016460D01*
X006987Y016460D01*
X006987Y015316D01*
X007559Y015316D01*
X007750Y015507D01*
X007750Y016270D01*
X007632Y015571D02*
X008013Y015571D01*
X008204Y015380D01*
X008204Y014808D01*
X008585Y014808D02*
X007441Y014808D01*
X007441Y015380D01*
X007632Y015571D01*
X008204Y015190D02*
X008585Y015571D01*
X006580Y015316D02*
X006580Y016460D01*
X005818Y016460D02*
X005818Y015316D01*
X005411Y015507D02*
X005411Y015888D01*
X005030Y015888D01*
X005411Y015507D02*
X005220Y015316D01*
X004839Y015316D01*
X004648Y015507D01*
X004648Y016270D01*
X004839Y016460D01*
X005220Y016460D01*
X005411Y016270D01*
X005818Y016460D02*
X006580Y015316D01*
X006263Y008967D02*
X005881Y008967D01*
X005691Y008777D01*
X005691Y008014D01*
X005881Y007823D01*
X006263Y007823D01*
X006453Y008014D01*
X006860Y008014D02*
X007051Y007823D01*
X007432Y007823D01*
X007623Y008014D01*
X008029Y007823D02*
X008792Y007823D01*
X008411Y007823D02*
X008411Y008967D01*
X008029Y008586D01*
X007623Y008777D02*
X007432Y008967D01*
X007051Y008967D01*
X006860Y008777D01*
X006860Y008014D01*
X006453Y008777D02*
X006263Y008967D01*
X005284Y008967D02*
X005284Y008205D01*
X004903Y007823D01*
X004521Y008205D01*
X004521Y008967D01*
X013156Y009173D02*
X013156Y008410D01*
X014300Y008410D01*
X014300Y008004D02*
X014300Y007241D01*
X013156Y007241D01*
X013156Y008004D01*
X013728Y007622D02*
X013728Y007241D01*
X013728Y006834D02*
X013919Y006644D01*
X013919Y006072D01*
X013919Y006453D02*
X014300Y006834D01*
X013728Y006834D02*
X013347Y006834D01*
X013156Y006644D01*
X013156Y006072D01*
X014300Y006072D01*
X013919Y005665D02*
X013156Y005665D01*
X013156Y004902D02*
X013919Y004902D01*
X014300Y005284D01*
X013919Y005665D01*
X013728Y008410D02*
X013728Y008792D01*
X014491Y009580D02*
X014491Y010342D01*
X014300Y010749D02*
X014300Y011512D01*
X014300Y011131D02*
X013156Y011131D01*
X013538Y010749D01*
X014110Y011919D02*
X014110Y012109D01*
X014300Y012109D01*
X014300Y011919D01*
X014110Y011919D01*
X014300Y012503D02*
X013538Y013266D01*
X013347Y013266D01*
X013156Y013075D01*
X013156Y012694D01*
X013347Y012503D01*
X014300Y012503D02*
X014300Y013266D01*
X013919Y013673D02*
X014300Y014054D01*
X013919Y014435D01*
X013156Y014435D01*
X013156Y013673D02*
X013919Y013673D01*
X017983Y007189D02*
X018555Y007189D01*
X018746Y006999D01*
X018746Y006617D01*
X018555Y006427D01*
X017983Y006427D01*
X018365Y006427D02*
X018746Y006045D01*
X019153Y006236D02*
X019343Y006045D01*
X019725Y006045D01*
X019915Y006236D01*
X019915Y006617D01*
X019725Y006808D01*
X019534Y006808D01*
X019153Y006617D01*
X019153Y007189D01*
X019915Y007189D01*
X021740Y006681D02*
X021740Y005537D01*
X021740Y005919D02*
X022312Y005919D01*
X022503Y006109D01*
X022503Y006491D01*
X022312Y006681D01*
X021740Y006681D01*
X022122Y005919D02*
X022503Y005537D01*
X022910Y006109D02*
X023672Y006109D01*
X023482Y005537D02*
X023482Y006681D01*
X022910Y006109D01*
X017983Y006045D02*
X017983Y007189D01*
X037794Y005564D02*
X037985Y005183D01*
X038366Y004802D01*
X038366Y005374D01*
X038557Y005564D01*
X038748Y005564D01*
X038938Y005374D01*
X038938Y004992D01*
X038748Y004802D01*
X038366Y004802D01*
X037985Y004395D02*
X037794Y004204D01*
X037794Y003823D01*
X037985Y003632D01*
X038748Y003632D01*
X038938Y003823D01*
X038938Y004204D01*
X038748Y004395D01*
X045653Y012206D02*
X045463Y012396D01*
X010236Y035636D02*
X010236Y036399D01*
X010236Y036018D02*
X009092Y036018D01*
X009474Y035636D01*
X005664Y035383D02*
X005664Y035001D01*
X005664Y035192D02*
X004520Y035192D01*
X004520Y035001D02*
X004520Y035383D01*
X004711Y035781D02*
X005474Y035781D01*
X005664Y035971D01*
X005664Y036353D01*
X005474Y036543D01*
X005474Y036950D02*
X005664Y037141D01*
X005664Y037522D01*
X005474Y037713D01*
X005283Y037713D01*
X005092Y037522D01*
X005092Y037141D01*
X004902Y036950D01*
X004711Y036950D01*
X004520Y037141D01*
X004520Y037522D01*
X004711Y037713D01*
X004520Y038120D02*
X004520Y038692D01*
X004711Y038882D01*
X005092Y038882D01*
X005283Y038692D01*
X005283Y038120D01*
X005664Y038120D02*
X004520Y038120D01*
X004711Y036543D02*
X004520Y036353D01*
X004520Y035971D01*
X004711Y035781D01*
X004611Y029160D02*
X004421Y028970D01*
X004421Y028207D01*
X004611Y028016D01*
X004993Y028016D01*
X005183Y028207D01*
X005590Y028207D02*
X005590Y028970D01*
X005781Y029160D01*
X006162Y029160D01*
X006353Y028970D01*
X006353Y028207D02*
X006162Y028016D01*
X005781Y028016D01*
X005590Y028207D01*
X005183Y028970D02*
X004993Y029160D01*
X004611Y029160D01*
X004014Y029160D02*
X004014Y028398D01*
X003633Y028016D01*
X003251Y028398D01*
X003251Y029160D01*
X004520Y045796D02*
X005092Y045796D01*
X004902Y046178D01*
X004902Y046368D01*
X005092Y046559D01*
X005474Y046559D01*
X005664Y046368D01*
X005664Y045987D01*
X005474Y045796D01*
X004520Y045796D02*
X004520Y046559D01*
D13*
X047003Y049251D03*
D14*
X043193Y049238D02*
X042558Y049238D01*
X041923Y049238D01*
X041923Y048603D02*
X042558Y048603D01*
X043193Y048603D01*
X049543Y020638D02*
X050178Y020638D01*
X050813Y020638D01*
X050813Y020003D02*
X050178Y020003D01*
X049543Y020003D01*
X039078Y019063D02*
X039078Y018428D01*
X039078Y017793D01*
X038443Y017793D02*
X038443Y018428D01*
X038443Y019063D01*
X040018Y007328D02*
X040653Y007328D01*
X041288Y007328D01*
X041288Y006693D02*
X040653Y006693D01*
X040018Y006693D01*
D15*
X047355Y006821D02*
X047355Y005846D01*
X047550Y005651D01*
X047940Y005651D01*
X048135Y005846D01*
X048135Y006821D01*
X048525Y006626D02*
X048720Y006821D01*
X049109Y006821D01*
X049304Y006626D01*
X049109Y006236D02*
X048720Y006236D01*
X048525Y006431D01*
X048525Y006626D01*
X048914Y007016D02*
X048914Y005457D01*
X048720Y005651D02*
X049109Y005651D01*
X049304Y005846D01*
X049304Y006041D01*
X049109Y006236D01*
X049694Y006431D02*
X050084Y006821D01*
X050084Y005651D01*
X049694Y005651D02*
X050474Y005651D01*
X048720Y005651D02*
X048525Y005846D01*
X031249Y015832D02*
X031054Y015637D01*
X030664Y015637D01*
X030469Y015832D01*
X030079Y015832D02*
X029884Y015637D01*
X029495Y015637D01*
X029300Y015832D01*
X029300Y016612D01*
X029495Y016807D01*
X029884Y016807D01*
X030079Y016612D01*
X030469Y016807D02*
X030469Y016222D01*
X030859Y016417D01*
X031054Y016417D01*
X031249Y016222D01*
X031249Y015832D01*
X031249Y016807D02*
X030469Y016807D01*
X030374Y035624D02*
X030763Y036013D01*
X030763Y036793D01*
X031153Y036793D02*
X031153Y035624D01*
X031933Y035624D01*
X032323Y035624D02*
X032323Y036793D01*
X032907Y036793D01*
X033102Y036598D01*
X033102Y036208D01*
X032907Y036013D01*
X032323Y036013D01*
X032712Y036013D02*
X033102Y035624D01*
X031933Y036793D02*
X031153Y036793D01*
X031153Y036208D02*
X031543Y036208D01*
X030374Y035624D02*
X029984Y036013D01*
X029984Y036793D01*
X029594Y036793D02*
X029204Y036793D01*
X029399Y036793D02*
X029399Y035624D01*
X029204Y035624D02*
X029594Y035624D01*
X028814Y035624D02*
X028035Y035624D01*
X028035Y036793D01*
X028814Y036793D01*
X028425Y036208D02*
X028035Y036208D01*
X027645Y035818D02*
X027450Y035624D01*
X027060Y035624D01*
X026865Y035818D01*
X026865Y036598D01*
X027060Y036793D01*
X027450Y036793D01*
X027645Y036598D01*
X026476Y036598D02*
X026281Y036793D01*
X025891Y036793D01*
X025696Y036598D01*
X025696Y036403D01*
X025891Y036208D01*
X026281Y036208D01*
X026476Y036013D01*
X026476Y035818D01*
X026281Y035624D01*
X025891Y035624D01*
X025696Y035818D01*
X025306Y035624D02*
X025306Y036793D01*
X024527Y036793D02*
X024527Y035624D01*
X024137Y035624D02*
X024137Y036403D01*
X023747Y036793D01*
X023357Y036403D01*
X023357Y035624D01*
X022967Y035624D02*
X022578Y036013D01*
X022773Y036013D02*
X022188Y036013D01*
X022188Y035624D02*
X022188Y036793D01*
X022773Y036793D01*
X022967Y036598D01*
X022967Y036208D01*
X022773Y036013D01*
X023357Y036208D02*
X024137Y036208D01*
X024527Y036793D02*
X025306Y035624D01*
X021798Y036793D02*
X021019Y036793D01*
X021408Y036793D02*
X021408Y035624D01*
D16*
X018428Y016396D02*
X014110Y016396D01*
X013221Y014376D02*
X013221Y012332D01*
X014110Y010300D02*
X018428Y010300D01*
X019317Y012332D02*
X019317Y014346D01*
X014491Y013348D02*
X014493Y013432D01*
X014499Y013516D01*
X014509Y013599D01*
X014523Y013682D01*
X014540Y013764D01*
X014562Y013845D01*
X014587Y013925D01*
X014616Y014004D01*
X014649Y014081D01*
X014686Y014157D01*
X014726Y014231D01*
X014769Y014303D01*
X014816Y014373D01*
X014866Y014440D01*
X014919Y014505D01*
X014975Y014568D01*
X015034Y014627D01*
X015096Y014684D01*
X015160Y014738D01*
X015227Y014789D01*
X015297Y014836D01*
X015368Y014881D01*
X015441Y014922D01*
X015517Y014959D01*
X015593Y014993D01*
X015672Y015023D01*
X015752Y015049D01*
X015833Y015072D01*
X015914Y015090D01*
X015997Y015105D01*
X016080Y015116D01*
X016164Y015123D01*
X016248Y015126D01*
X016332Y015125D01*
X016416Y015120D01*
X016499Y015111D01*
X016582Y015098D01*
X016665Y015081D01*
X016746Y015061D01*
X016826Y015036D01*
X016906Y015008D01*
X016983Y014976D01*
X017059Y014941D01*
X017134Y014902D01*
X017206Y014859D01*
X017276Y014813D01*
X017344Y014764D01*
X017410Y014712D01*
X017473Y014656D01*
X017534Y014598D01*
X017591Y014537D01*
X017646Y014473D01*
X017697Y014407D01*
X017746Y014338D01*
X017791Y014267D01*
X017833Y014194D01*
X017871Y014119D01*
X017906Y014043D01*
X017937Y013965D01*
X017964Y013885D01*
X017987Y013805D01*
X018007Y013723D01*
X018023Y013641D01*
X018035Y013558D01*
X018043Y013474D01*
X018047Y013390D01*
X018047Y013306D01*
X018043Y013222D01*
X018035Y013138D01*
X018023Y013055D01*
X018007Y012973D01*
X017987Y012891D01*
X017964Y012811D01*
X017937Y012731D01*
X017906Y012653D01*
X017871Y012577D01*
X017833Y012502D01*
X017791Y012429D01*
X017746Y012358D01*
X017697Y012289D01*
X017646Y012223D01*
X017591Y012159D01*
X017534Y012098D01*
X017473Y012040D01*
X017410Y011984D01*
X017344Y011932D01*
X017276Y011883D01*
X017206Y011837D01*
X017134Y011794D01*
X017059Y011755D01*
X016983Y011720D01*
X016906Y011688D01*
X016826Y011660D01*
X016746Y011635D01*
X016665Y011615D01*
X016582Y011598D01*
X016499Y011585D01*
X016416Y011576D01*
X016332Y011571D01*
X016248Y011570D01*
X016164Y011573D01*
X016080Y011580D01*
X015997Y011591D01*
X015914Y011606D01*
X015833Y011624D01*
X015752Y011647D01*
X015672Y011673D01*
X015593Y011703D01*
X015517Y011737D01*
X015441Y011774D01*
X015368Y011815D01*
X015297Y011860D01*
X015227Y011907D01*
X015160Y011958D01*
X015096Y012012D01*
X015034Y012069D01*
X014975Y012128D01*
X014919Y012191D01*
X014866Y012256D01*
X014816Y012323D01*
X014769Y012393D01*
X014726Y012465D01*
X014686Y012539D01*
X014649Y012615D01*
X014616Y012692D01*
X014587Y012771D01*
X014562Y012851D01*
X014540Y012932D01*
X014523Y013014D01*
X014509Y013097D01*
X014499Y013180D01*
X014493Y013264D01*
X014491Y013348D01*
X012308Y009098D02*
X012308Y004898D01*
X012234Y004846D01*
X012159Y004797D01*
X012082Y004751D01*
X012003Y004708D01*
X011923Y004668D01*
X011841Y004631D01*
X011758Y004598D01*
X009932Y004573D02*
X009839Y004609D01*
X009747Y004648D01*
X009656Y004691D01*
X009568Y004738D01*
X009481Y004788D01*
X009396Y004841D01*
X009314Y004898D01*
X009233Y004957D01*
X009155Y005020D01*
X009080Y005086D01*
X009007Y005155D01*
X008937Y005226D01*
X008869Y005300D01*
X008805Y005377D01*
X008743Y005456D01*
X008685Y005538D01*
X008630Y005621D01*
X008578Y005707D01*
X008530Y005795D01*
X008485Y005884D01*
X008443Y005975D01*
X008405Y006068D01*
X008371Y006162D01*
X008341Y006257D01*
X008314Y006354D01*
X008291Y006451D01*
X008271Y006550D01*
X008256Y006649D01*
X008244Y006748D01*
X008236Y006848D01*
X008232Y006948D01*
X008232Y007048D01*
X008236Y007148D01*
X008244Y007248D01*
X008256Y007347D01*
X008271Y007446D01*
X008291Y007545D01*
X008314Y007642D01*
X008341Y007739D01*
X008371Y007834D01*
X008405Y007928D01*
X008443Y008021D01*
X008485Y008112D01*
X008530Y008201D01*
X008578Y008289D01*
X008630Y008375D01*
X008685Y008458D01*
X008743Y008540D01*
X008805Y008619D01*
X008869Y008696D01*
X008937Y008770D01*
X009007Y008841D01*
X009080Y008910D01*
X009155Y008976D01*
X009233Y009039D01*
X009314Y009098D01*
X009396Y009155D01*
X009481Y009208D01*
X009568Y009258D01*
X009656Y009305D01*
X009747Y009348D01*
X009839Y009387D01*
X009932Y009423D01*
X011758Y009398D02*
X011841Y009365D01*
X011923Y009328D01*
X012003Y009288D01*
X012082Y009245D01*
X012159Y009199D01*
X012234Y009150D01*
X012308Y009098D01*
X037364Y012348D02*
X038764Y012348D01*
X039464Y012748D02*
X040064Y013348D01*
X039464Y013948D01*
X039464Y012748D01*
X040064Y012648D02*
X040064Y013348D01*
X040064Y014048D01*
X040764Y014348D02*
X042164Y014348D01*
X042164Y012348D01*
X040764Y012348D01*
X038764Y014348D02*
X037364Y014348D01*
X037364Y012348D01*
X047008Y011938D02*
X050308Y011938D01*
X050308Y007138D01*
X047008Y007138D01*
X050308Y007138D02*
X050808Y007138D01*
X050808Y011938D02*
X050308Y011938D01*
D17*
X040264Y014757D02*
X040010Y014757D01*
X040137Y014757D02*
X040137Y015139D01*
X040010Y015012D01*
X039890Y015075D02*
X039826Y015139D01*
X039636Y015139D01*
X039636Y014757D01*
X039826Y014757D01*
X039890Y014821D01*
X039890Y015075D01*
X039516Y015139D02*
X039262Y015139D01*
X039262Y014757D01*
X039516Y014757D01*
X039389Y014948D02*
X039262Y014948D01*
X039142Y014757D02*
X038887Y014757D01*
X038887Y015139D01*
D18*
X011862Y024232D02*
X010260Y024232D01*
X010794Y024765D01*
X010260Y025299D01*
X011862Y025299D01*
X011862Y025869D02*
X011862Y026403D01*
X011862Y026136D02*
X010260Y026136D01*
X010260Y025869D02*
X010260Y026403D01*
X010527Y026960D02*
X011595Y026960D01*
X011862Y027227D01*
X011862Y027761D01*
X011595Y028028D01*
X011862Y028597D02*
X010260Y028597D01*
X010260Y029398D01*
X010527Y029665D01*
X011061Y029665D01*
X011328Y029398D01*
X011328Y028597D01*
X011328Y029131D02*
X011862Y029665D01*
X011595Y030235D02*
X011862Y030501D01*
X011862Y031035D01*
X011595Y031302D01*
X010527Y031302D01*
X010260Y031035D01*
X010260Y030501D01*
X010527Y030235D01*
X011595Y030235D01*
X011595Y031872D02*
X010527Y031872D01*
X010260Y032139D01*
X010260Y032672D01*
X010527Y032939D01*
X010527Y033509D02*
X011595Y033509D01*
X011862Y033776D01*
X011862Y034310D01*
X011595Y034577D01*
X010527Y034577D01*
X010260Y034310D01*
X010260Y033776D01*
X010527Y033509D01*
X011595Y032939D02*
X011862Y032672D01*
X011862Y032139D01*
X011595Y031872D01*
X011862Y035146D02*
X010260Y035146D01*
X011862Y036214D01*
X010260Y036214D01*
X010260Y036783D02*
X010260Y037851D01*
X010260Y037317D02*
X011862Y037317D01*
X011862Y038420D02*
X010260Y038420D01*
X010260Y039221D01*
X010527Y039488D01*
X011061Y039488D01*
X011328Y039221D01*
X011328Y038420D01*
X011328Y038954D02*
X011862Y039488D01*
X011595Y040057D02*
X011862Y040324D01*
X011862Y040858D01*
X011595Y041125D01*
X010527Y041125D01*
X010260Y040858D01*
X010260Y040324D01*
X010527Y040057D01*
X011595Y040057D01*
X011862Y041695D02*
X010260Y041695D01*
X010260Y043332D02*
X011862Y043332D01*
X011862Y044399D01*
X011862Y044969D02*
X011862Y046037D01*
X011862Y046606D02*
X010260Y046606D01*
X010260Y047407D01*
X010527Y047674D01*
X011061Y047674D01*
X011328Y047407D01*
X011328Y046606D01*
X011328Y047140D02*
X011862Y047674D01*
X010260Y046037D02*
X010260Y044969D01*
X011862Y044969D01*
X011061Y044969D02*
X011061Y045503D01*
X011862Y042762D02*
X011862Y041695D01*
X010527Y028028D02*
X010260Y027761D01*
X010260Y027227D01*
X010527Y026960D01*
D19*
X010173Y021400D03*
X010173Y014186D03*
X053353Y016726D03*
X057163Y016726D03*
X057163Y023939D03*
X053353Y023939D03*
D20*
X024574Y008268D03*
X024574Y004458D03*
X017361Y004458D03*
X017361Y008268D03*
X020765Y018555D03*
X013551Y018555D03*
D21*
X045098Y017412D02*
X045098Y016904D01*
M02*
