G75*
%MOIN*%
%OFA0B0*%
%FSLAX24Y24*%
%IPPOS*%
%LPD*%
%AMOC8*
5,1,8,0,0,1.08239X$1,22.5*
%
%ADD10C,0.0000*%
%ADD11C,0.1000*%
%ADD12R,0.1100X0.0984*%
%ADD13C,0.0860*%
%ADD14C,0.0860*%
%ADD15C,0.0660*%
%ADD16R,0.0790X0.0590*%
%ADD17R,0.0790X0.1500*%
%ADD18R,0.0790X0.0200*%
%ADD19R,0.0610X0.0512*%
%ADD20R,0.0990X0.0990*%
%ADD21R,0.1000X0.1000*%
%ADD22R,0.0300X0.0787*%
%ADD23C,0.0320*%
%ADD24C,0.0240*%
%ADD25C,0.0276*%
%ADD26C,0.0000*%
D10*
X000755Y002134D02*
X000755Y020884D01*
X020505Y020884D01*
X020505Y002134D01*
X000755Y002134D01*
D11*
X004305Y006034D03*
X005805Y005784D03*
X004305Y010034D03*
X004005Y013634D03*
X009805Y005784D03*
X012755Y004884D03*
X014505Y004884D03*
X014505Y002884D03*
X012755Y002884D03*
X017755Y007634D03*
X019755Y007634D03*
X017005Y013634D03*
X015255Y013634D03*
X015255Y015634D03*
X017005Y017634D03*
D12*
X014499Y007484D03*
X012011Y007484D03*
D13*
X003285Y007134D02*
X002425Y007134D01*
X002425Y006134D02*
X003285Y006134D01*
X003285Y005134D02*
X002425Y005134D01*
X002425Y004134D02*
X003285Y004134D01*
X003285Y008134D02*
X002425Y008134D01*
D14*
X018655Y015334D03*
X018655Y016334D03*
D15*
X018755Y012464D02*
X018755Y011804D01*
X019755Y011804D02*
X019755Y012464D01*
X017755Y012464D02*
X017755Y011804D01*
X016755Y011804D02*
X016755Y012464D01*
X015755Y012464D02*
X015755Y011804D01*
X014755Y011804D02*
X014755Y012464D01*
X013755Y012464D02*
X013755Y011804D01*
X012755Y011804D02*
X012755Y012464D01*
X011755Y012464D02*
X011755Y011804D01*
X010755Y011804D02*
X010755Y012464D01*
X009755Y012464D02*
X009755Y011804D01*
X008755Y011804D02*
X008755Y012464D01*
X007755Y012464D02*
X007755Y011804D01*
X006755Y011804D02*
X006755Y012464D01*
X006755Y009464D02*
X006755Y008804D01*
X007755Y008804D02*
X007755Y009464D01*
X008755Y009464D02*
X008755Y008804D01*
X009755Y008804D02*
X009755Y009464D01*
X010755Y009464D02*
X010755Y008804D01*
X011755Y008804D02*
X011755Y009464D01*
X012755Y009464D02*
X012755Y008804D01*
X013755Y008804D02*
X013755Y009464D01*
X014755Y009464D02*
X014755Y008804D01*
X015755Y008804D02*
X015755Y009464D01*
X016755Y009464D02*
X016755Y008804D01*
X017755Y008804D02*
X017755Y009464D01*
X018755Y009464D02*
X018755Y008804D01*
X019755Y008804D02*
X019755Y009464D01*
D16*
X008765Y004774D03*
X008765Y003874D03*
X008765Y002974D03*
D17*
X011245Y003884D03*
D18*
X008765Y004176D03*
X008765Y004475D03*
X008765Y004475D03*
X008765Y004475D03*
X008765Y003569D03*
X008765Y003270D03*
D19*
X007220Y003048D03*
X007220Y003548D03*
X007220Y004320D03*
X007220Y004820D03*
X004090Y004820D03*
X004090Y004320D03*
X004090Y003548D03*
X004090Y003048D03*
D20*
X005255Y014884D03*
X005255Y015884D03*
X005255Y016884D03*
X005255Y017884D03*
X005255Y018884D03*
X005255Y019884D03*
X012255Y019884D03*
X012255Y018884D03*
X012255Y017884D03*
X012255Y016884D03*
X012255Y015884D03*
X012255Y014884D03*
D21*
X016351Y005422D03*
X016351Y003335D03*
X019659Y003335D03*
X019659Y005422D03*
D22*
X018635Y005520D03*
X018320Y005520D03*
X018005Y005520D03*
X017690Y005520D03*
X017375Y005520D03*
D23*
X017255Y005884D02*
X016755Y006384D01*
X015755Y006384D01*
X015505Y006134D01*
X015255Y004884D01*
X014505Y002884D01*
X012755Y002884D02*
X012405Y002784D01*
X009705Y002784D01*
X009515Y002974D01*
X008765Y002974D01*
X008765Y003874D02*
X008255Y003884D01*
X008005Y004134D01*
X008005Y005384D01*
X008255Y005634D01*
X009805Y005784D01*
X010505Y006634D02*
X011255Y006084D01*
X014505Y006084D01*
X015255Y006634D01*
X015255Y010884D01*
X015505Y011134D01*
X016255Y011134D01*
X016755Y011634D01*
X016755Y012134D01*
X017005Y010884D02*
X017755Y010884D01*
X018255Y011384D01*
X018255Y012634D01*
X018505Y012984D01*
X019505Y012984D01*
X019755Y012634D01*
X019755Y012134D01*
X018755Y012134D02*
X018755Y011134D01*
X017755Y010134D01*
X017505Y010134D01*
X017255Y009884D01*
X017255Y008384D01*
X017005Y008034D01*
X017005Y007234D01*
X018005Y006634D01*
X017605Y006334D02*
X016255Y007184D01*
X016255Y010134D01*
X017005Y010884D01*
X015255Y013634D02*
X014255Y014634D01*
X014255Y016634D01*
X013005Y017884D01*
X012255Y017884D01*
X012255Y016884D02*
X013005Y016884D01*
X013755Y016134D01*
X013755Y014134D01*
X012755Y013134D01*
X012755Y012134D01*
X013755Y012134D02*
X013755Y011134D01*
X013255Y010634D01*
X013255Y006634D01*
X013005Y006584D01*
X011505Y006584D01*
X010755Y007134D01*
X006005Y007134D01*
X005005Y008134D01*
X005005Y013134D01*
X006505Y014634D01*
X006505Y016384D01*
X006005Y016884D01*
X005255Y016884D01*
X005255Y015884D02*
X003755Y015884D01*
X003005Y015134D01*
X003005Y010134D01*
X004505Y008634D01*
X004505Y007884D01*
X005755Y006634D01*
X010505Y006634D01*
X009505Y007634D02*
X010755Y008884D01*
X010755Y009134D01*
X011755Y009134D02*
X011755Y008884D01*
X012255Y008384D01*
X012255Y007390D01*
X012011Y007484D01*
X012755Y009134D02*
X012755Y010384D01*
X012255Y010884D01*
X012255Y013384D01*
X013255Y014384D01*
X013255Y015634D01*
X013005Y015884D01*
X012255Y015884D01*
X012255Y014884D02*
X010505Y014884D01*
X008755Y013134D01*
X008755Y012134D01*
X007505Y014134D02*
X006005Y012634D01*
X006005Y008634D01*
X006505Y008134D01*
X009255Y008134D01*
X009755Y008634D01*
X009755Y009134D01*
X009505Y007634D02*
X006255Y007634D01*
X005505Y008384D01*
X005505Y012884D01*
X007005Y014384D01*
X007005Y016634D01*
X005755Y017884D01*
X005255Y017884D01*
X005255Y018884D02*
X005755Y018884D01*
X007505Y017134D01*
X007505Y014134D01*
X005255Y014884D02*
X004005Y014384D01*
X004005Y013634D01*
X002505Y010134D02*
X003955Y008434D01*
X003955Y006834D01*
X003305Y006334D01*
X002855Y006134D01*
X004005Y005434D01*
X004090Y004820D01*
X004755Y005384D02*
X004755Y003884D01*
X003990Y003119D01*
X004090Y003048D01*
X004755Y005384D02*
X005805Y005784D01*
X008765Y004774D02*
X010495Y004774D01*
X010705Y004984D01*
X011905Y004984D01*
X012005Y004884D01*
X012755Y004884D01*
X014255Y007390D02*
X014499Y007484D01*
X014255Y007390D02*
X014255Y008384D01*
X013755Y008884D01*
X013755Y009134D01*
X017755Y007634D02*
X018255Y007634D01*
X018755Y007134D01*
X018755Y005634D01*
X018749Y005634D01*
X015255Y015634D02*
X015255Y017384D01*
X013755Y018884D01*
X012255Y018884D01*
X010005Y018884D01*
X009755Y018634D01*
X007005Y018634D01*
X005755Y019884D01*
X005255Y019884D01*
X004505Y019884D01*
X002505Y017884D01*
X002505Y010134D01*
X012255Y018884D02*
X012255Y019884D01*
D24*
X017255Y005884D02*
X017255Y005640D01*
X017375Y005520D01*
X018635Y005520D02*
X018749Y005634D01*
D25*
X018005Y005520D02*
X018005Y006634D01*
X017605Y006334D02*
X017705Y005834D01*
X017690Y005520D01*
D26*
X006005Y011884D02*
X006005Y012634D01*
M02*
