%
M48
M72
T01C0.0236
T02C0.0276
T03C0.0320
T04C0.0354
T05C0.0400
%
T01
X505Y1634
X505Y21384
X10755Y21384
X21005Y21384
X21005Y1634
T02
X19755Y7634
X17755Y7634
X14505Y4884
X12755Y4884
X12755Y2884
X14505Y2884
X9805Y5784
X5805Y5784
X4305Y6034
X4305Y10034
X4005Y13634
X15255Y13634
X15255Y15634
X17005Y13634
X18655Y15334
X18655Y16334
X17005Y17634
T03
X16755Y12134
X15755Y12134
X14755Y12134
X13755Y12134
X12755Y12134
X11755Y12134
X10755Y12134
X9755Y12134
X8755Y12134
X7755Y12134
X6755Y12134
X6755Y9134
X7755Y9134
X8755Y9134
X9755Y9134
X10755Y9134
X11755Y9134
X12755Y9134
X13755Y9134
X14755Y9134
X15755Y9134
X16755Y9134
X17755Y9134
X18755Y9134
X19755Y9134
X19755Y12134
X18755Y12134
X17755Y12134
T04
X17316Y4634
X18694Y4634
T05
X2855Y4134
X2855Y5134
X2855Y6134
X2855Y7134
X2855Y8134
M30
