%
M48
M72
T01C0.0236
T02C0.0276
T03C0.0320
T04C0.0354
T05C0.0400
%
T01
X505Y1634
X505Y21384
X10755Y21384
X21005Y21384
X21005Y1634
T02
X17205Y6034
X15705Y5784
X17205Y10034
X17505Y13634
X11705Y5784
X8755Y4884
X7005Y4884
X7005Y2884
X8755Y2884
X3755Y7634
X1755Y7634
X4505Y13634
X2855Y15334
X2855Y16334
X4505Y17634
X6255Y15634
X6255Y13634
T03
X6755Y12134
X7755Y12134
X8755Y12134
X9755Y12134
X10755Y12134
X11755Y12134
X12755Y12134
X13755Y12134
X14755Y12134
X14755Y9134
X13755Y9134
X12755Y9134
X11755Y9134
X10755Y9134
X9755Y9134
X8755Y9134
X7755Y9134
X6755Y9134
X5755Y9134
X4755Y9134
X3755Y9134
X2755Y9134
X1755Y9134
X1755Y12134
X2755Y12134
X3755Y12134
X4755Y12134
X5755Y12134
T04
X4194Y4634
X2816Y4634
T05
X18655Y4134
X18655Y5134
X18655Y6134
X18655Y7134
X18655Y8134
M30
