%
M48
METRIC,TZ
M71
T01C0.5000
T02C0.6000
T03C0.7000
T04C0.8128
T05C1.0000
T06C1.0160
T07C1.1176
%
T01
X29858Y55893
T02
X1283Y1283
X1283Y55893
X60338Y55893
X60338Y1283
T03
X57163Y15253
X53353Y15253
X50178Y17793
X50178Y22873
X53353Y25413
X57163Y25413
X45098Y18428
X45098Y15888
X41288Y18428
X36208Y18428
X40653Y9538
X40653Y4458
X26048Y4458
X26048Y8268
X22238Y18555
X15888Y8268
X15888Y4458
X10808Y4458
X10808Y6998
X10808Y9538
X10173Y12713
X5474Y9411
X12078Y18555
X10173Y22873
X5474Y22111
X42558Y46368
X47003Y46368
X47003Y51448
X42558Y51448
T04
X43828Y30493
X46368Y30493
X41288Y30493
X38748Y30493
X36208Y30493
X33668Y30493
X31128Y30493
X28588Y30493
X26048Y30493
X23508Y30493
X20968Y30493
X18428Y30493
X15888Y30493
X13348Y30493
X13348Y22873
X15888Y22873
X18428Y22873
X20968Y22873
X23508Y22873
X26048Y22873
X28588Y22873
X31128Y22873
X33668Y22873
X36208Y22873
X38748Y22873
X41288Y22873
X43828Y22873
X46368Y22873
T05
X19520Y15608
X19520Y11087
X13017Y11087
X13017Y15608
T06
X7379Y36208
X7379Y38748
X7379Y41288
X7379Y43828
X7379Y46368
T07
X5093Y25667
X6998Y18047
X6490Y12967
X6363Y5474
X22873Y12713
X27318Y12713
X33033Y13348
X36208Y8903
X50178Y30493
X50178Y35573
X45733Y35573
M30
